/* XPM */
static char *_89c95b8df064d2ea552b4d528fe681eEBOjBZBl4fVIyLf9[] = {
/* columns rows colors chars-per-pixel */
"64 64 25 1 ",
"  c black",
". c #3A0000",
"X c #00003A",
"o c #3A003A",
"O c #660000",
"+ c #000066",
"@ c #903A00",
"# c #B66600",
"$ c #DB903A",
"% c #FFB666",
"& c #003A90",
"* c #0066B6",
"= c #3A90DB",
"- c #66B6FF",
"; c #FFB690",
": c #FFDB90",
"> c #FFFFB6",
", c #B6B6DB",
"< c #90DBFF",
"1 c #B6FFFF",
"2 c #DBFFDB",
"3 c #FFFFDB",
"4 c #DBDBFF",
"5 c #DBFFFF",
"6 c white",
/* pixels */
"                                                                ",
"                                                                ",
"                                                                ",
"                                                                ",
"                                                                ",
"                                                                ",
"                                                                ",
"                                X<$                             ",
" -6$    -%                      X<$                             ",
" -63@   -%                 =%   X<$                             ",
" -;<%   -%                 =%   X<$                             ",
" -%&2@  -%   -666$  X<$-63,6666:o<$-66>O                        ",
" -% -:. -%  -:. X<% X<6#   =%   X<6# X<%                        ",
" -% +1# -% &2@   &2@X<$    =%   X<$   =>O                       ",
" -%  =>O-% *>O   +1#X<$    =%   X<$   *>O                       ",
" -%  X<$-% *>O   +1#X<$    =%   X<$   *>O                       ",
" -%   *34% &2@   &2@X<$    =:.  X<$   *>O                       ",
" -%   X<6%  -:. +1% X<$    *>O  X<$   *>O                       ",
" -%    &5%   -666$  X<$     -66:o<$   *>O                       ",
"                                                                ",
"                                                                ",
"                                                                ",
"                                                                ",
"                                                                ",
"                                                                ",
"                                                                ",
"                                                                ",
"                                                                ",
"                                                                ",
"                                                                ",
"                                                                ",
"                                                                ",
"                                                                ",
"                                                                ",
"                                                                ",
"                                                                ",
"                                                                ",
"                                                                ",
"                                                                ",
"                                                                ",
"                                                                ",
"                                                                ",
"                                                                ",
"                                                                ",
"                                                                ",
"                                                                ",
"                                                                ",
"                                                                ",
"                                                                ",
"                                                                ",
"                                                                ",
"                                                                ",
"                                                                ",
"                                                                ",
"                                                                ",
"                                                                ",
"                                                                ",
"                                                                ",
"                                                                ",
"                                                                ",
"                                                                ",
"                                                                ",
"                                                                ",
"                                                                "
};
