/* XPM */
static char *d10ad049724c4c19e9cb23de93702968y8OLL1IVQNiEeWU1[] = {
/* columns rows colors chars-per-pixel */
"64 64 24 1 ",
"  c #ED1C24",
". c #F11C24",
"X c #F31C24",
"o c #F74A24",
"O c #F77224",
"+ c #F97224",
"@ c #ED1C50",
"# c #F11C50",
"$ c #ED1C76",
"% c #FC9850",
"& c #FFBB76",
"* c #ED4A9B",
"= c #ED72BD",
"- c #FFDD9B",
"; c #FFFFBD",
": c #F198DE",
"> c #F398DE",
", c #F3BBFF",
"< c #F9FFDE",
"1 c #FCFFDE",
"2 c #F7DDFF",
"3 c #F9FFFF",
"4 c #FCFFFF",
"5 c white",
/* pixels */
"                                                                ",
"                                                                ",
"                                                                ",
"                                                                ",
"                                                                ",
"                                                                ",
"                                                                ",
"                                  @2%                           ",
"  :55555+                         @2%                           ",
" ,;.   =-.                   :&   @2%                           ",
"$<o                          :&   @2%                           ",
"*5+         ,555%  @2%   :-.:5555-#2%,55;.                      ",
" ,5&       ,-. @2& @2%   :-. :&   @25+ @2&                      ",
"  :5555-. *1o   *<o@2%   :-. :&   @2%   :;X                     ",
"      *5;.=;.   $3+@2%   :-. :&   @2%   =;.                     ",
"       *1o=;X   $4+@2%   :-. :&   @2%   =;X                     ",
"*O     *<o*1o   *1o@2%   :-. :-.  @2%   =;X                     ",
"*4-.  $4&  ,-. $4&  ,-  *5-. =;.  @2%   =;X                     ",
" @25555O    ,555%   @255-:-.  ,55-#2%   =;X                     ",
"                                                                ",
"                                                                ",
"                                                                ",
"                                                                ",
"                                                                ",
"                                                                ",
"                                                                ",
"                                                                ",
"                                                                ",
"                                                                ",
"                                                                ",
"                                                                ",
"                                                                ",
"                                                                ",
"                                                                ",
"                                                                ",
"                                                                ",
"                                                                ",
"                                                                ",
"                                                                ",
"                                                                ",
"                                                                ",
"                                                                ",
"                                                                ",
"                                                                ",
"                                                                ",
"                                                                ",
"                                                                ",
"                                                                ",
"                                                                ",
"                                                                ",
"                                                                ",
"                                                                ",
"                                                                ",
"                                                                ",
"                                                                ",
"                                                                ",
"                                                                ",
"                                                                ",
"                                                                ",
"                                                                ",
"                                                                ",
"                                                                ",
"                                                                ",
"                                                                "
};
