/* XPM */
static char *_88b01a68b2240599e7f028257e511f4xzclOGAaJ0O4ieqA[] = {
/* columns rows colors chars-per-pixel */
"64 64 19 1 ",
"  c #3F48CC",
". c #3F48DD",
"X c #3F6AE6",
"o c #6448CC",
"O c #8548CC",
"+ c #A66ACC",
"@ c #3F8AEE",
"# c #64A9F7",
"$ c #C48ACC",
"% c #E1A9D5",
"& c #85C7FF",
"* c #FFC7DD",
"= c #C4FFFF",
"- c #FFE3E6",
"; c #FFFFEE",
": c #E1FFF7",
"> c #E1FFFF",
", c #FFFFF7",
"< c white",
/* pixels */
"                                                                ",
"                                                                ",
"                                                                ",
"                                                                ",
"                                                                ",
"                                                                ",
"                                                                ",
"                                                                ",
" &<<<<<<$                                                       ",
" &*                       #*                                    ",
" &*                       #*                                    ",
" &*       #<<<<*   @<<<<$#<<<<-o                                ",
" &*       #$  .=% X>$  @% #*                                    ",
" &<<<<<,+      #-oX:+     #*                                    ",
" &*        #<<<<-o &<<$   #*                                    ",
" &*      .=-o  #-o    &<$ #*                                    ",
" &*      @;O   #-o     &* #-o                                   ",
" &*      X>$  @<-o@%  .=% @;O                                   ",
" &<<<<<<$ @<<<*#-o.=<<<*   &<<-o                                ",
"                                                                ",
"                                                                ",
"                                                                ",
"                                                                ",
"                                                                ",
"                                                                ",
"                                                                ",
"                                                                ",
"                                                                ",
"                                                                ",
"                                                                ",
"                                                                ",
"                                                                ",
"                                                                ",
"                                                                ",
"                                                                ",
"                                                                ",
"                                                                ",
"                                                                ",
"                                                                ",
"                                                                ",
"                                                                ",
"                                                                ",
"                                                                ",
"                                                                ",
"                                                                ",
"                                                                ",
"                                                                ",
"                                                                ",
"                                                                ",
"                                                                ",
"                                                                ",
"                                                                ",
"                                                                ",
"                                                                ",
"                                                                ",
"                                                                ",
"                                                                ",
"                                                                ",
"                                                                ",
"                                                                ",
"                                                                ",
"                                                                ",
"                                                                ",
"                                                                "
};
