/* XPM */
static char *e3253e1d504c44b6fb0830017b969e04pvsCUVEnOvf0mugu[] = {
/* columns rows colors chars-per-pixel */
"64 64 72 1 ",
"  c black",
". c #070402",
"X c #1B1206",
"o c #2D1D0A",
"O c #4B3011",
"+ c #CF862F",
"@ c #D38830",
"# c #E19133",
"$ c #E19235",
"% c #E19236",
"& c #E29236",
"* c #E29338",
"= c #E29439",
"- c #E2953A",
"; c #E2953B",
": c #E2963C",
"> c #E3963D",
", c #E39942",
"< c #E49C48",
"1 c #E6A354",
"2 c #E7A558",
"3 c #E7A65A",
"4 c #E9AE69",
"5 c #E9AF6B",
"6 c #EAB270",
"7 c #EAB271",
"8 c #EBB475",
"9 c #ECB87B",
"0 c #EDBC82",
"q c #EDBD85",
"w c #EDBE88",
"e c #EEC089",
"r c #EEC38F",
"t c #F1CA9D",
"y c #F1CB9E",
"u c #F3D3AD",
"i c #F3D4B0",
"p c #F4D5B1",
"a c #F4D6B3",
"s c #F5DABB",
"d c #F5DBBD",
"f c #F6DDBF",
"g c gray79",
"h c gray80",
"j c gray81",
"k c #F6DDC1",
"l c #F6E0C5",
"z c #F7E2C9",
"x c #F8E4CD",
"c c #F8E5CF",
"v c #F8E6D0",
"b c #F9E7D3",
"n c #F9E8D5",
"m c #FAEDDE",
"M c gray90",
"N c #EAEAEA",
"B c #EEEEEE",
"V c #FBEFE3",
"C c #FCF6EE",
"Z c #FDF6EF",
"A c #F3F3F3",
"S c #FEF9F4",
"D c #FEFAF6",
"F c #FEFCF9",
"G c #FEFCFA",
"H c #FEFDFB",
"J c #FEFDFC",
"K c #FFFEFC",
"L c #FFFEFD",
"P c #FFFEFE",
"I c #FFFFFE",
"U c white",
/* pixels */
"UUUUUUUUUUUUUUUUUUUUUUUUUUUUUUUUUUUUUUUUUUUUUUUUUUUUUUUUUUUUUUUU",
"UUUUUUUUUUUUUUUUUUUUUUUUUUUUUUUUUUUUUUUUUUUUUUUUUUUUUUUUUUUUUUUU",
"UUUUUUUUUUUUUUUUUUUUUUUUUUUUUUUUUUUUUUUUUUUUUUUUUUUUUUUUUUUUUUUU",
"UUUUUUUUUUUUUUUUUUUUUUUUUUUUUUUUUUUUUUUUUUUUUUUUUUUUUUUUUUUUUUUU",
"UUUUUUUUUUUUUUUUUUUUUUUUUUUUUUUUx7UUUUU8UUUUUUUUUUUUUUUUUUUUUUUU",
"UUUUUUUUUUUUUUUUUUUUUUUUUUUUUUUx####3U1##GUUUUUUUUUUUUUUUUUUUUUU",
"UUUUAUUUUUUUAUUUUUUUUUUUUUUUUAU0##########UUUUUUUUUUUUAUUUUUUUAU",
"UUUUUUUUUUUUUUUUUUUUUUUUUUUUUUUs###########UUUUUUUUUUUUUUUUUUUUU",
"UUUUUUUUUUUUUUUUUUUUUUUUUUUUUUUU###########eUUUUUUUUUUUUUUUUUUUU",
"UUUUUUUUUUUUUUUUUUUUUUUUUUUUUUUU############UUUUUUUUUUUUUUUUUUUU",
"UUUUUUUUUUUUUUUUUUUUUUUUUUUUUUUU############DUUUUUUUUUUUUUUUUUUU",
"UUUUUUUUUUUUUUUUUUUUUUUUUUUUUUUUt###########<UUUUUUUUUUUUUUUUUUU",
"UUUUUUUUUUUUUUUUUUUUUUUUUUUUUUUUU############UUUUUUUUUUUUUUUUUUU",
"UUUUUUUUUUUUUUUUUUUUUUUUUUUUUUUUU;###########UUUUUUUUUUUUUUUUUUU",
"UUUUgUUUUUUUgUUUUUUUUUUUUUUUUgUUUU###########UUUUUUUUUgUUUUUUUgU",
"UUUUUUUUUUUUUUUUUUUUUUUUUUUUUUUUUU8##########UUUUUUUUUUUUUUUUUUU",
"UUUUUUUUUUUUUUUUUUUUUUUUUUUUUUUUUUU############iUUUUUUUUUUUUUUUU",
"UUUUUUUUUUUUUUUUUUUUUUUUUUUUUUUUUUUU##############pUUUUUUUUUUUUU",
"UUUUUUUUUUUUUUUUUUUUUUUUUUUUUUUUUUUUU###############UUUUUUUUUUUU",
"UUUUUUUUUUUUUUUUUUUUUUUUUUUUUUUUUUUUUU*##############UUUUUUUUUUU",
"UUUUUUUUUUUUUUUUUUUUUUUUUUUUUUUUUUUUUUU###############UUUUUUUUUU",
"UUUUUUUUUUUUUUUUUUUUUUUUUUUUUUUUUUUUUU&#####o   #######UUUUUUUUU",
"UUUUUUUUUUUUUUUUUUUUUUUUUUUUUUUUUUUUUU######    .#######UUUUUUUU",
"UUUUBUUUUUUUBUUUUUUUUUUUUUUUUBUUUUUUUB#####+     ########UUUUUBU",
"UUUUUUUUUUUUUUUUUUUUUUUUUUUUUUUUUUUUUU######    O#########UUUUUU",
"UUUUUUUUUUUUUUUUUUUUUUUUUUUUUUUVnvmDUU######@  X##########UUUUUU",
"UUUUUUUUUUUUUUUUUUUUUUUUUC&###############################UUUUUU",
"UUUUUUUUUUUUUUUUUUUUUUU;#################################dUUUUUU",
"UUUUUUUUUUUUUUUUUUUUU,###################################UUUUUUU",
"UUUUUUUUUUUUUUUUUUUU####################################UUUUUUUU",
"UUUUUUUUUUUUUUUUUUf####################################CUUUUUUUU",
"UUUUhUUUUUUUhUUUUl###################################vhUUUUUUUhU",
"UUUUUUUUUUUUUUUUG###################################UUUUUUUUUUUU",
"UUUUUUUUUUUUUUUU####################################UUUUUUUUUUUU",
"UUUUUUUUUUUUUUU3####################################UUUUUUUUUUUU",
"UUUUUUUUUUUUUUU#####################################UUUUUUUUUUUU",
"UUUUUUUUUUUUUU4#####################################UUUUUUUUUUUU",
"UUUUUUUUUUUUUU######################################UUUUUUUUUUUU",
"UUUUUUUUUUUUUU#####################################kUUUUUUUUUUUU",
"UUUUUUUUUUUUU9#####################################UUUUUUUUUUUUU",
"UUUUNUUUUUUUN#####################################qUUUNUUUUUUUNU",
"UUUUUUUUUUUUU#####################################UUUUUUUUUUUUUU",
"UUUUUUUUUUUUU####################################UUUUUUUUUUUUUUU",
"UUUUUUUUUUUUU###################################UUUUUUUUUUUUUUUU",
"UUUUUUUUUUUUU##################################GUUUUUUUUUUUUUUUU",
"UUUUUUUUUUUUU#################################UUUUUUUUUUUUUUUUUU",
"UUUUUUUUUUUUU#################################UUUUUUUUUUUUUUUUUU",
"UUUUUUUUUUUUU################################uUUUUUUUUUUUUUUUUUU",
"UUUUhUUUUUUUh################################UUUUUUUUUhUUUUUUUhU",
"UUUUUUUUUUUUU#########################zU#####UUUUUUUUUUUUUUUUUUU",
"UUUUUUUUUU##<######################;UUUU#####UUUUUUUUUUUUUUUUUUU",
"UUUUUUUUUw#########################UUUUU#####UUUUUUUUUUUUUUUUUUU",
"UUUUUUUUUp#########################&UUUU4####UUUUUUUUUUUUUUUUUUU",
"UUUUUUUUUU###########################&UUU####UUUUUUUUUUUUUUUUUUU",
"UUUUUUUUUU>############################UU#####>UUUUUUUUUUUUUUUUU",
"UUUUUUUUUUU#############################Ut#####&UUUUUUUUUUUUUUUU",
"UUUUUUUUUUUU8##########################rUU7#####UUUUUUUUUUUUUUUU",
"UUUUMUUUUUUUMUUUUUUUUUUUUUUUUMUUUUUUUMUUUUUUUUUUUUUUUUMUUUUUUUMU",
"UUUUUUUUUUUUUUUUUUUUUUUUUUUUUUUUUUUUUUUUUUUUUUUUUUUUUUUUUUUUUUUU",
"UUUUUUUUUUUUUUUUUUUUUUUUUUUUUUUUUUUUUUUUUUUUUUUUUUUUUUUUUUUUUUUU",
"UUUUUUUUUUUUUUUUUUUUUUUUUUUUUUUUUUUUUUUUUUUUUUUUUUUUUUUUUUUUUUUU",
"UUUUUUUUUUUUUUUUUUUUUUUUUUUUUUUUUUUUUUUUUUUUUUUUUUUUUUUUUUUUUUUU",
"UUUUUUUUUUUUUUUUUUUUUUUUUUUUUUUUUUUUUUUUUUUUUUUUUUUUUUUUUUUUUUUU",
"UUUUUUUUUUUUUUUUUUUUUUUUUUUUUUUUUUUUUUUUUUUUUUUUUUUUUUUUUUUUUUUU"
};
