/* XPM */
static char *xpm_[] = {
/* columns rows colors chars-per-pixel */
"64 64 207 2 ",
"   c #1A120E",
".  c #1A1B0C",
"X  c #1C1412",
"o  c #1E1C1A",
"O  c #1B1712",
"+  c #1B0F11",
"@  c #221715",
"#  c #241915",
"$  c #2B1B15",
"%  c #251C1A",
"&  c #2A1D1B",
"*  c #221718",
"=  c #311E1B",
"-  c #301D15",
";  c #022A00",
":  c #062305",
">  c #14260C",
",  c #003500",
"<  c #0F2E0E",
"1  c #2C221D",
"2  c #242C1C",
"3  c #2E2015",
"4  c #33221C",
"5  c #3A261B",
"6  c #3C2A1D",
"7  c #362419",
"8  c #221C21",
"9  c #262122",
"0  c #2D2424",
"q  c #2C262A",
"w  c #2E292B",
"e  c #2C2B23",
"r  c #332622",
"t  c #3A2622",
"y  c #342925",
"u  c #3B2A25",
"i  c #332B2B",
"p  c #3C2E2A",
"a  c #302728",
"s  c #3C312C",
"d  c #342D31",
"f  c #373031",
"g  c #3C3333",
"h  c #3B3439",
"j  c #3A353A",
"k  c #27362F",
"l  c #412C1E",
"z  c #42301F",
"x  c #422E23",
"c  c #422E29",
"v  c #453224",
"b  c #4B3526",
"n  c #44332C",
"m  c #49362A",
"M  c #4D3A2B",
"N  c #4D3827",
"B  c #523D2D",
"V  c #443632",
"C  c #483732",
"Z  c #443A34",
"A  c #4B3B35",
"S  c #443B3B",
"D  c #4B3E3A",
"F  c #483738",
"G  c #533E31",
"H  c #503F39",
"J  c #0F490C",
"K  c #27511C",
"L  c #056204",
"P  c #0B7208",
"I  c #3A5537",
"U  c #3B4C25",
"Y  c #307A2F",
"T  c #336434",
"R  c #474528",
"E  c #46413C",
"W  c #4B423C",
"Q  c #544233",
"!  c #594534",
"~  c #52423C",
"^  c #5D4A3C",
"/  c #5C4739",
"(  c #614B35",
")  c #614C3C",
"_  c #66513F",
"`  c #443D41",
"'  c #386844",
"]  c #4A4244",
"[  c #4C4549",
"{  c #4B4446",
"}  c #544A45",
"|  c #5C4B44",
" . c #534C4C",
".. c #5B4E4C",
"X. c #524641",
"o. c #425A47",
"O. c #5C524E",
"+. c #544D51",
"@. c #565155",
"#. c #5C5354",
"$. c #5C555A",
"%. c #5C5B58",
"&. c #4F4A51",
"*. c #614E44",
"=. c #635142",
"-. c #6B5542",
";. c #6D594A",
":. c #63524E",
">. c #735D4E",
",. c #605653",
"<. c #635B55",
"1. c #645B5B",
"2. c #6A5E5D",
"3. c #6E5C53",
"4. c #4A7441",
"5. c #4F6C51",
"6. c #6A625C",
"7. c #64635B",
"8. c #7B6658",
"9. c #70684D",
"0. c #685E61",
"q. c #5D6860",
"w. c #6E6462",
"e. c #67616A",
"r. c #6D656B",
"t. c #716663",
"y. c #736A64",
"u. c #746B6B",
"i. c #796E6D",
"p. c #6F6A70",
"a. c #736D74",
"s. c #7A7373",
"d. c #7B757B",
"f. c #7F7875",
"g. c #77706E",
"h. c #836D5D",
"j. c #826D62",
"k. c #8A7464",
"l. c #8E786B",
"z. c #877363",
"x. c #927C6D",
"c. c #847C7C",
"v. c #857B78",
"b. c #907B72",
"n. c #099108",
"m. c #29921C",
"M. c #0FAA10",
"N. c #0FBB0C",
"B. c #378736",
"V. c #378C26",
"C. c #3AAF39",
"Z. c #42913F",
"A. c #498227",
"S. c #42A03D",
"D. c #1FC51F",
"F. c #02F503",
"G. c #09F405",
"H. c #02F50A",
"J. c #0AF30B",
"K. c #11F20C",
"L. c #18EA1B",
"P. c #0DF211",
"I. c #11F213",
"U. c #0EEE0F",
"Y. c #25E61A",
"T. c #34D925",
"R. c #30D432",
"E. c #1DE222",
"W. c #27E326",
"Q. c #43CA3E",
"!. c #419040",
"~. c #5A995C",
"^. c #4EB74B",
"/. c #5FAA6E",
"(. c #748B6D",
"). c #3EC744",
"_. c #3FD340",
"`. c #91817A",
"'. c #847D83",
"]. c #8D8383",
"[. c #88868A",
"{. c #948985",
"}. c #938888",
"|. c #8F8992",
" X c #928B94",
".X c #958F98",
"XX c #99969A",
"oX c #A49A9F",
"OX c #9E9AA2",
"+X c #A29DA4",
"@X c #A89EA3",
"#X c #A7A0A7",
"$X c #A9A4AD",
"%X c #B3ADB3",
"&X c #B5B1B5",
"*X c #B9B4B9",
"=X c #BFB9C0",
"-X c #C1BAC1",
";X c #C9C4CC",
":X c #DAD5DC",
">X c #C9C8D3",
",X c #DDDBE2",
"<X c #E3DEE7",
"1X c #E9E5ED",
"2X c #EDE8EF",
"3X c #EBE6F1",
"4X c #EDE9F3",
/* pixels */
"H.H.H.H.H.H.H.H.H.H.H.H.H.H.H.[.3X=X[.d.p.$.$.@.@.&.$.0.+.D #.].{.v.w.<.6.6.6.y.y.i.t.t.u.v.d.W.H.H.H.H.F.H.H.H.H.H.H.H.H.H.H.F.",
"H.H.H.H.H.H.H.H.H.H.H.H.H.H.H.XX3X=X|.d.e.$.$.&.` &.$.$.} h ..].{.v.1.<.6.6.y.y.y.t.t.2.0.u.v./.J.H.F.H.H.H.H.H.H.H.H.H.H.H.H.F.",
"H.H.H.H.H.H.H.H.H.H.H.H.H.H.H.>X3X$X|.d.e.&.&.` h  .$.$.D h :.}.{.i.<.<.8.6.y.y.y.2.2.<.<.t.i.'.K.H.F.F.H.H.H.H.H.H.H.H.H.H.H.F.",
"H.H.H.H.H.H.H.H.H.H.H.H.H.H.W.;X3X$X|.a.@.[ ` j h [ %.$.h g #.}.`.2.<.1.t.y.y.i.t.1.#.O.#.<.r.c.W.H.F.H.H.H.H.H.H.H.H.H.H.H.H.F.",
"H.H.H.H.H.H.H.H.H.H.H.H.H.F.).:X3X$X|.a.@.` j j g [ $.#.f g ,.'.i.%.<.2.t.y.u.u.7.<.O...} ..$.a.^.J.F.F.H.H.H.H.H.H.H.H.H.H.H.F.",
"H.H.H.H.H.H.H.H.H.H.H.H.H.F.~.1X3X$X|.e.&.j j h g ] #.@.f p 1.v.6.:.<.7.y.y.y.y.7.O.| X.D ` [ 1.(.J.H.H.H.H.H.H.H.H.H.H.H.H.H.F.",
"H.H.H.H.H.H.H.H.H.H.H.H.H.J.q.<X<X#X.Xe.` j h d d ` #.+.i r <.i.6.,.<.9.6.y.y.y.%.} W S g d h +.s.F.J.F.H.H.H.H.H.H.H.H.H.H.H.F.",
"P.H.H.H.H.H.H.H.H.H.H.H.H.Y.[.1X,XOX.X0.` j d j d S [ [ w q <.u.,.O.7.7.y.y.g.6.O.W Z s a w i { r.F.H.F.H.H.H.H.H.H.H.H.H.H.H.F.",
"H.H.H.H.H.H.H.H.H.H.H.H.H.).XX1X,XOX.Xe.j d w q i h  .{ q 0 ,.6.O.O.,.<.6.g.y.7.~ R s e 1 8 w j 6.F.F.F.H.H.H.H.H.H.H.H.H.H.H.F.",
"H.H.H.H.H.H.H.H.H.H.H.H.H.S.XX2X,XOX.X0.j q q d w f ] E 0 r ,.<.O...O.,.7.6.7.:.W g y 1 1 % q h 0.F.H.F.H.H.H.H.H.H.H.H.H.H.H.F.",
"H.H.H.H.H.H.H.H.H.H.H.H.H.Z.$X1X,XOX|.1.d 8 q w i i Z h 0 4 } O.} W D E } } } W s y 1 1 8 9 8 j %.G.H.F.H.H.H.H.H.H.H.H.H.H.H.F.",
"H.H.H.H.H.H.H.H.H.H.H.H.H.Y #X<X,X+X'.+.w q q w w i f f a 1 X.} g y y t y s i y y 1 2 1 8 8 q j 7.G.H.F.H.H.H.H.H.H.H.H.H.H.H.F.",
"H.H.H.H.H.H.H.H.H.H.H.H.H.' @X:X,X+Xd.&.w 9 q w i i i i q 4 E g 1 1 & & & 1 1 1 1 1 1 1 % % 9 d 5.F.F.F.H.H.H.H.H.H.H.H.H.H.H.F.",
"P.H.H.H.H.H.H.H.H.H.H.H.J.I $X;X>XXX0.&.d 9 0 w w w i i y a s & # * @ * % % 1 a y e 1 9 9 9 8 d 5.F.F.H.H.H.H.H.H.H.H.H.H.H.F.F.",
"H.H.H.H.H.H.H.H.H.H.H.H.P.o.*X-X=X.X0.[ d q 0 q w a i y s p 0 & % % # @ @ * i i y w e 1 1 1 8 d 4.F.G.H.H.H.H.H.H.H.F.H.H.H.H.F.",
"H.H.H.H.H.H.H.H.H.H.H.H.J.o.*X-X%X X@.` d 9 q q w w a s V i & % # % % % O % p i i y 0 1 8 8 9 k 4.H.F.H.H.H.H.H.H.H.H.H.H.H.H.F.",
"H.H.H.H.H.H.H.H.H.H.H.H.H.T *X*X#X].+.S i q a r y a a s Z 1 % % @ % % % O 0 s s i a 0 1 1 9 9 d V.H.G.H.H.H.H.H.H.H.H.H.H.H.H.F.",
"H.H.H.H.H.H.H.H.H.H.H.H.H.B.*X*X+X`.#.S f a q y y a a s Z 1 & % % % % % * i f f y q 1 % o % 8 w m.H.F.F.H.H.H.H.H.H.H.H.H.H.H.F.",
"P.H.H.H.H.H.H.H.H.H.H.H.H.R.oX&X}.w.] D V i a y a a r C Z % & % % & % * % s g y y q 9 % % % o w D.H.H.H.H.H.H.H.H.H.H.H.H.H.H.F.",
"H.H.H.H.H.H.H.H.H.H.H.H.H.I.f.#X'.S 0 0 D V y r r r r C s % % & * % % O 1 Z s 0 0 1 1 % o % 1 w L.F.F.F.H.H.H.H.H.H.H.H.H.H.F.F.",
"H.H.H.H.H.H.H.H.H.H.H.H.H.F.%.}.g.D r % 0 D u r r y r C y # % % & % * % i V i 0 1 % % % o % 9 w U.H.F.H.H.H.H.H.H.H.H.H.H.H.H.F.",
"H.H.H.H.H.H.H.H.H.H.H.H.H.F.T '.1. .a # * F c u r y r F t # % % % & % & h p 0 1 1 % % O o % % w F.H.F.H.H.H.H.H.H.H.H.H.H.H.H.F.",
"P.H.H.H.H.H.H.H.H.H.H.H.H.H.).d.1.@.d # * V F u y y 4 D r * # & % % & y s r % 1 % % * * * % q k H.F.H.H.H.H.H.H.H.H.H.H.H.H.H.F.",
"H.H.H.H.H.H.H.H.H.H.H.H.H.H.L.p.r.1.Z % % p F p u y t V r * @ * # % r p e & % % O % % % o % 9 J G.J.H.H.H.H.H.H.H.H.H.H.H.H.H.F.",
"H.H.H.H.H.H.H.H.H.H.H.H.H.H.J.q.u.w.S * & p F p u u u g 4 % @ * # r s u 1 % % % O % 1 & % % 0 n.H.H.F.H.H.H.H.H.H.H.H.H.H.H.H.F.",
"H.H.H.H.H.H.H.H.H.H.H.H.H.H.H.I u.u.S a & u F p u r u p & # r p s Z y 1 3 o % % % 1 % 8 o o % E.J.H.G.H.H.H.H.H.H.H.H.H.H.H.H.F.",
"H.H.H.H.H.H.H.H.H.H.H.H.H.H.H.B.2.0.D r 0 t V p p u u y & & s W E s 1 1 & % % % % 1 0 9 % % 2 F.F.F.H.H.H.H.H.H.H.H.H.H.H.H.H.F.",
"H.H.H.H.H.H.H.H.H.H.H.H.H.H.H.W.} X.,.Z r r V n p p r t # & n D n r 1 & # # % % & 4 1 % % & J F.F.F.F.H.H.H.H.H.H.H.H.H.H.H.H.F.",
"P.H.H.H.H.H.H.H.H.H.H.H.H.H.H.H.E D R ,.O...A A F u u r * & s n e 1 1 # % % % % 4 u 1 1 % * D.H.H.H.H.H.H.H.H.H.H.H.H.H.H.H.H.F.",
"H.H.H.H.H.H.H.H.H.H.H.H.H.H.H.P.J Z n E | :.D W F n u = @ & t r 1 1 3 % # 3 % & r u r 9 1 2 F.H.H.H.H.H.H.H.H.H.H.H.H.H.H.H.H.F.",
"H.H.H.H.H.H.H.H.H.H.H.H.H.H.H.H.R.E n g F ~ D | D c p r # & & 1 1 1 1 # % 3 % r y p 0 1 % < H.H.H.H.H.H.H.H.H.H.H.H.H.H.H.H.H.F.",
"P.H.H.H.H.H.H.H.H.H.H.H.H.H.H.H.P.W W Z V V H | D V p t # & = 1 % 3 # 1 # 1 1 t s u 4 1 1 n.H.H.H.H.H.H.H.H.H.H.H.H.H.H.H.H.H.F.",
"H.H.H.H.H.H.H.H.H.H.H.H.H.H.H.H.H.K } R C F D | D C p 4 $ & & & 1 1 & & 4 r u p p u 4 4 y I.H.H.H.H.H.H.H.H.H.H.H.H.H.H.H.H.H.F.",
"H.H.H.H.H.H.H.H.H.H.H.H.H.H.H.H.H.T...W V F H | H F c 4 $ & = t 0 4 1 4 u u p n u u y y p I.H.H.H.H.H.H.H.H.H.H.H.H.H.H.H.H.H.F.",
"H.H.H.H.H.H.H.H.H.H.H.H.H.H.H.H.H.G.I } D D ~ *.H C c t & = 4 8 = r r u n m C n u u 4 y F I.H.H.H.H.H.H.H.H.H.H.H.H.H.H.H.H.H.F.",
"H.H.H.H.H.H.H.H.H.H.H.H.H.H.H.H.H.H.W.R W ~ | | H C c = & t t 4 4 4 t n C A A m u y t u S I.H.H.H.H.H.H.H.H.H.H.H.H.H.H.H.H.F.F.",
"H.H.H.H.H.H.H.H.H.H.H.H.H.H.H.H.H.H.H.Y.~ / :.| H m x = n n t r 4 4 p m A G M n u u u p Z P.H.H.H.H.H.H.H.H.H.H.H.H.H.H.H.H.H.F.",
"H.H.H.H.H.H.H.H.H.H.H.H.H.H.H.H.H.H.J.F.V.:.3.| C v 5 t G n x t 6 c A ~ H G M m v u u u S P.F.H.H.H.H.H.H.H.H.H.H.H.H.H.H.H.H.F.",
"H.H.H.H.H.H.H.H.H.H.H.H.H.H.H.H.H.H.H.H.L.y.3./ m x l M =.m x l A Q | / ^ Q B m v v u s F P.H.H.H.H.H.H.H.H.H.H.H.H.H.H.H.H.H.F.",
"H.H.H.H.H.H.H.H.H.H.H.H.H.H.H.H.H.H.H.H.H.9.j.>.M l l ;.;.G b N b Q ^ *.*.! B m M n u u F U.J.H.H.H.H.H.H.H.H.H.H.H.H.H.H.H.F.F.",
"H.H.H.H.H.H.H.H.H.H.H.H.H.H.H.H.H.H.H.H.H.V.z.l.! x / h.>.! Q B Q ! ^ ^ ) ! B G m n x u n J.H.H.H.H.H.H.H.H.H.H.H.H.H.H.H.H.H.F.",
"H.H.H.H.H.H.H.H.H.H.H.H.H.H.H.H.H.H.H.H.H.P.6.b.j.B k.k.8._ _ _ ! ^ ^ ) ( ! G B m v u c s J.H.H.H.H.H.H.H.H.H.H.H.H.H.H.H.H.F.F.",
"P.H.H.H.H.H.H.H.H.H.H.H.H.H.H.H.H.H.H.H.H.H.U 8.b.k.l.l.h.>.>._ ( ( ^ ^ ! B N b n x u u w F.H.H.H.H.H.H.H.H.H.H.H.H.H.H.H.H.H.F.",
"H.H.H.H.H.H.H.H.H.H.H.H.H.H.H.H.H.H.H.H.H.F.Z.:.h.k.x.x.k.8.>.-.( ! B Q B N b v x c r r 2 H.H.H.H.H.H.H.H.H.H.H.H.H.H.H.H.H.H.F.",
"H.H.H.H.H.H.H.H.H.H.H.H.H.H.H.H.H.H.H.H.H.H.^.) *.;.h.k.h.h._ ( R N v v v v x x u 6 t y 2 H.H.H.H.H.H.H.H.H.H.H.H.H.H.H.H.H.H.F.",
"H.H.H.H.H.H.H.H.H.H.H.H.H.H.H.H.H.H.H.H.H.H.Q.| ) *.-.;.;._ ! N N b l l l x l x u 5 5 1 2 H.H.H.H.H.H.H.H.H.H.H.H.H.H.H.H.H.F.F.",
"H.H.H.H.H.H.H.H.H.H.H.H.H.H.H.H.H.H.H.H.H.H.R.| ) *.( / ! B N N N z z l l l 5 x u 4 y 4 > F.H.H.H.H.H.H.H.H.H.H.H.H.H.H.H.H.H.F.",
"H.H.H.H.H.H.H.H.H.H.H.H.H.H.H.H.H.H.H.H.H.H.W.) G *.) B B b b b z l l l 5 7 = x n t 0 1 > F.H.H.H.H.H.H.H.H.H.H.H.H.H.H.H.H.H.F.",
"P.H.H.H.H.H.H.H.H.H.H.H.H.H.H.H.H.H.H.H.H.H.L.) M ! =.M m N b v l l 7 7 3 $ 4 x s t 4 & : F.H.H.H.H.H.H.H.H.H.H.H.H.H.H.H.H.H.F.",
"H.H.H.H.H.H.H.H.H.H.H.H.H.H.H.H.H.H.H.H.H.H.K.| M M =.! B b b v l l - = $ - 5 c s t 4 1 > G.H.H.H.H.H.H.H.H.H.H.H.H.H.H.H.H.H.F.",
"H.H.H.H.H.H.H.H.H.H.H.H.H.H.H.H.H.H.H.H.H.H.F.^ M m M *.! B N b l 5 7 = 7 7 u u 5 4 & & , F.H.H.H.H.H.H.H.H.H.H.H.H.H.H.H.H.H.F.",
"H.H.H.H.H.H.H.H.H.H.H.H.H.H.H.H.H.H.H.H.H.H.G.A.m b v / ( ! G b l 5 - 7 4 6 u u 4 1 & % L F.F.H.H.H.H.H.H.H.H.H.H.H.H.H.H.H.H.F.",
"P.H.H.H.H.H.H.H.H.H.H.H.H.H.H.H.H.H.H.H.H.H.H.T.A v v M ^ ^ / B z l 7 7 t t t = 1 & & % M.F.H.H.H.H.H.H.H.H.H.H.H.H.H.H.H.H.H.F.",
"H.H.H.H.H.H.H.H.H.H.H.H.H.H.H.H.H.H.H.H.H.H.H.U.R M m M M Q G B z z 5 5 u t 4 - & $ * % W.F.H.H.H.H.H.H.H.H.H.H.H.H.H.H.H.H.H.F.",
"H.H.H.H.H.H.H.H.H.H.H.H.H.H.H.H.H.H.H.H.H.H.H.J.C.N M m M m M M N b l 5 4 & # # & % & o K.H.F.H.H.H.H.H.H.H.H.H.H.H.H.H.H.H.H.F.",
"H.H.H.H.H.H.H.H.H.H.H.H.H.H.H.H.H.H.H.H.H.H.H.H.U.z v M n u t C M v x t = $ $ # @ * % o G.H.H.H.H.H.H.H.H.H.H.H.H.H.H.H.H.H.H.F.",
"H.H.H.H.H.H.H.H.H.H.H.H.H.H.H.H.H.H.H.H.H.H.H.H.J.T.x x u t = x x n c = $ # $ @ # * * o H.H.G.H.H.H.H.H.H.H.H.H.H.H.H.H.H.H.H.F.",
"H.H.H.H.H.H.H.H.H.H.H.H.H.H.H.H.H.H.H.H.H.H.H.H.H.H.m.x t & $ = t u u & @ @ @ @ # * * , H.G.H.H.H.H.H.H.H.H.H.H.H.H.H.H.H.H.H.F.",
"H.H.H.H.H.H.H.H.H.H.H.H.H.H.H.H.H.H.H.H.H.H.H.H.H.H.H.D.L ;   @ @ & = & @ O     X @ o N.F.F.H.H.H.H.H.H.H.H.H.H.H.H.H.H.H.H.H.F.",
"H.H.H.H.H.H.H.H.H.H.H.H.H.H.H.H.H.H.H.F.H.H.H.H.H.H.J.J.F.U.L.R.: X X @     X # * X o U.F.F.H.H.H.H.H.H.H.H.H.H.H.H.H.H.H.H.H.F.",
"H.H.H.H.H.H.H.H.H.H.H.H.H.H.H.H.H.H.H.H.H.H.H.H.H.H.H.H.H.F.F.F.H.R.: X X     X @ o > F.F.F.F.H.H.H.H.H.H.H.H.H.H.H.H.H.H.H.H.F.",
"P.H.H.H.H.H.H.H.H.H.H.H.H.H.H.H.H.H.H.H.H.H.H.H.H.H.H.H.H.H.J.H.H.H.P.:   X X X X 8 P H.F.F.H.H.H.H.H.H.H.H.H.H.H.H.H.H.H.H.H.F.",
"H.H.H.H.H.H.H.H.H.H.H.H.H.H.H.H.H.H.H.H.H.H.H.H.H.H.H.H.H.H.H.F.H.H.H._.+ O X X X . G.F.G.F.H.H.H.H.H.H.H.H.H.H.H.H.H.H.H.H.H.F.",
"H.H.H.H.H.H.H.H.H.H.H.H.H.H.H.H.H.H.H.H.H.H.H.H.H.H.H.H.H.H.H.H.H.H.H.P.  + + + @ , F.F.F.G.H.H.H.H.H.H.H.H.H.H.H.H.H.H.H.H.H.F."
};
