/* XPM */
static char *_9e7685218844b9986281d355e0ac609Uw0Y9KKAwV30pi0q[] = {
/* columns rows colors chars-per-pixel */
"64 64 245 2 ",
"   c #090C0D",
".  c #0D140D",
"X  c #13180E",
"o  c #0D0E13",
"O  c #140E16",
"+  c #0E1612",
"@  c #131513",
"#  c #151B15",
"$  c #191C16",
"%  c #14141C",
"&  c #151A1A",
"*  c #1A1D1A",
"=  c #1B1417",
"-  c #241A19",
";  c #152016",
":  c #1A2215",
">  c #1C231B",
",  c #1D291C",
"<  c #182419",
"1  c #22241D",
"2  c #232B1D",
"3  c #28261B",
"4  c #28331E",
"5  c #32231E",
"6  c #161923",
"7  c #1B1C25",
"8  c #191A26",
"9  c #1B1E31",
"0  c #241E26",
"q  c #341F22",
"w  c #1D2322",
"e  c #1E222B",
"r  c #1E2A21",
"t  c #212323",
"y  c #242B23",
"u  c #292D25",
"i  c #22232C",
"p  c #252B2B",
"a  c #2A2E2A",
"s  c #2C2324",
"d  c #352A29",
"f  c #263222",
"g  c #2B3424",
"h  c #2C3925",
"j  c #2C332C",
"k  c #2D3B2A",
"l  c #26342E",
"z  c #313B25",
"x  c #32352B",
"c  c #323C2C",
"v  c #363227",
"b  c #262934",
"n  c #2D3332",
"m  c #2C3635",
"M  c #323533",
"N  c #333B32",
"B  c #373C39",
"V  c #362A36",
"C  c #473938",
"Z  c #553A3A",
"A  c #48362E",
"S  c #412B1F",
"D  c #35442D",
"F  c #39462B",
"G  c #3D4434",
"H  c #3C433A",
"J  c #394734",
"K  c #3E5235",
"L  c #2D442C",
"P  c #444838",
"I  c #58453C",
"U  c #495539",
"Y  c #474F34",
"T  c #63463E",
"R  c #1C244F",
"E  c #2D334A",
"W  c #303A68",
"Q  c #483944",
"!  c #403D52",
"~  c #3C4444",
"^  c #3C4657",
"/  c #39456A",
"(  c #384A71",
")  c #454A45",
"_  c #574846",
"`  c #4A5647",
"'  c #585648",
"]  c #565C57",
"[  c #4B5056",
"{  c #684D46",
"}  c #65574B",
"|  c #76554C",
" . c #6D5554",
".. c #7A5B55",
"X. c #714C44",
"o. c #596452",
"O. c #686659",
"+. c #7A635A",
"@. c #60684F",
"#. c #444E7C",
"$. c #46547B",
"%. c #575C74",
"&. c #4A4C65",
"*. c #596371",
"=. c #666A66",
"-. c #796963",
";. c #717372",
":. c #605563",
">. c #855E55",
",. c #88665B",
"<. c #96715F",
"1. c #866B64",
"2. c #926E62",
"3. c #89756B",
"4. c #947265",
"5. c #99766B",
"6. c #8B7975",
"7. c #997C74",
"8. c #A1796E",
"9. c #A27D72",
"0. c #A97E75",
"q. c #99837A",
"w. c #8C8479",
"e. c #A78579",
"r. c #B28C7D",
"t. c #A0816F",
"y. c #3D4F80",
"u. c #4C5887",
"i. c #4D588A",
"p. c #58678C",
"a. c #5D699C",
"s. c #586695",
"d. c #5F7C8C",
"f. c #657589",
"g. c #626D9E",
"h. c #636E93",
"j. c #677799",
"k. c #707691",
"l. c #5E6DA1",
"z. c #626DA1",
"x. c #6573A4",
"c. c #6D7AAC",
"v. c #6A77A7",
"b. c #717BA9",
"n. c #717DB1",
"m. c #6C7DB0",
"M. c #7A8597",
"N. c #748493",
"B. c #7887A7",
"V. c #7582B4",
"C. c #7985B4",
"Z. c #7A85B9",
"A. c #7D8ABC",
"S. c #7B8AB5",
"D. c #798EAE",
"F. c #7E89C1",
"G. c #9B8985",
"H. c #9B8998",
"J. c #8B9291",
"K. c #A78B85",
"L. c #B48C82",
"P. c #B58A82",
"I. c #AA9489",
"U. c #B79589",
"Y. c #AD9593",
"T. c #B69B94",
"R. c #BBA09A",
"E. c #8996A9",
"W. c #818DBB",
"Q. c #8897B9",
"!. c #8E92AF",
"~. c #AE98A4",
"^. c #95A5BA",
"/. c #95A3AD",
"(. c #AFAFAD",
"). c #C39A8C",
"_. c #C49D93",
"`. c #C8A394",
"'. c #D1AA98",
"]. c #D7BBB4",
"[. c #D0B3AA",
"{. c #E2BEA7",
"}. c #BBC1B5",
"|. c #D1C3BC",
" X c #E6C3AF",
".X c #828DC2",
"XX c #8692C4",
"oX c #8C9AC4",
"OX c #8A96CB",
"+X c #8C9ACC",
"@X c #8995C5",
"#X c #939CCA",
"$X c #929DD2",
"%X c #8E9DD1",
"&X c #97A6CA",
"*X c #95A2D4",
"=X c #9DAADC",
"-X c #9AA8D7",
";X c #9DB2CC",
":X c #A6B7C9",
">X c #A2AEDD",
",X c #A8B6D9",
"<X c #B7BDD7",
"1X c #ABB1CB",
"2X c #9DAAE1",
"3X c #A2ADE2",
"4X c #A5B2E4",
"5X c #ADBAEC",
"6X c #A9B7E7",
"7X c #B1BDEC",
"8X c #B0BCE5",
"9X c #B1BDF2",
"0X c #AEC4D5",
"qX c #B6C8DA",
"wX c #B6C1CF",
"eX c #B7C6E9",
"rX c #B5C2F3",
"tX c #B9C5F4",
"yX c #BCCBF3",
"uX c #BBC8F8",
"iX c #BAD0EE",
"pX c #C4C5C4",
"aX c #D4D8D4",
"sX c #F5D5D4",
"dX c #ECCDC9",
"fX c #DDE3DA",
"gX c #C6D9EA",
"hX c #C1CEF7",
"jX c #CDDCFD",
"kX c #C7D5F8",
"lX c #D3DEF7",
"zX c #CDE3F9",
"xX c #D4E4FD",
"cX c #DBECFD",
"vX c #D6E9F9",
"bX c #DBF2FD",
"nX c #D5E3EB",
"mX c #E4F7FE",
"MX c #F5F6F4",
"NX c white",
"BX c #FFFEFE",
"VX c #FEFDFD",
"CX c #FFFFFE",
"ZX c #F5F8F8",
"AX c #ECEFF0",
/* pixels */
"NXNXNXNXNXNXNXNXNXNXNXNXNXNXNXNXNXNXNXNXVXVXAXw.$ : F U Y z 2 G ) > w > w p p * M ZXZXVXNXNXNXNXNXNXNXNXNXNXNXNXNXNXNXNXNXNXNXNX",
"NXNXNXNXNXNXNXNXNXNXNXNXNXNXNXNXNXNXNXNX2 1 3 Y U > : H j p i > w i i i y y n w w p j M ZXNXNXNXNXNXNXNXNXNXNXNXNXNXNXNXNXNXNXNX",
"NXNXNXNXNXNXNXNXNXNXNXNXNXNXNXNXNXMXG O.: : Y @.O.y y i i w 7 e e e e e i i y a y y y y , ] ZXNXNXNXNXNXNXNXNXNXNXNXNXNXNXNXNXNX",
"NXNXNXNXNXNXNXNXNXNXNXNXNXNXZXMXy y y B O.o.=.u y i i e i e 7 7 6 8 6 6 6 7 w p y y y 2 , , ) n VXVXNXNXNXNXNXNXNXNXNXNXNXNXNXNX",
"NXNXNXNXNXNXNXNXNXNXNXNXNXMXx * * > > > u B p t t 0 7 w 7 7 8 % % 6 6 % % % % & t y k j ] y j n ~ J.VXVXNXNXNXNXNXNXNXNXNXNXNXNX",
"NXNXNXNXNXNXNXNXNXNXNXNXNX> $ $ $ : * $ $ * w 0 0 0 0 i 0 7 6 6 6 8 8 6 0 i i w w y k y y > M aXm ` N VXNXVXNXNXNXNXNXNXNXNXNXNX",
"NXNXNXNXNXNXNXNXNXNXNXpX* $ $ # # $ : * $ & * 0 0 0 C Q s 7 7 8 6 8 8 0 i i b i w a N.a y ;.a =.=.M N ) ZXNXNXNXNXNXNXNXNXNXNXNX",
"NXNXNXNXNXNXNXNXNXVX) $ # $ $ # # * < * $ = & 0 d _ .. .V 7 7 7 8 6 8 e b i p e 0 i ) j B N ] [ B N H J L fXZXNXNXNXNXNXNXNXNXNX",
"NXNXNXNXNXNXNXNXVXB # $ * ] y > > > > > $ # * s Q 1.4.1.{ s 7 7 8 8 7 i i i e i i i n p y p p y y u c ` K K (.ZXNXNXNXNXNXNXNXNX",
"NXNXNXNXNXNXNXNX) @ # < > j y y > < * * $ * - d +.7.9.5.1.C 7 8 8 7 7 e e e e e 9 i b p y M p u N u 2 D Y L K }.NXNXNXNXNXNXNXNX",
"NXNXNXNXNXNXNXJ.@ = # > p y 1 y > # $ $ y ' 5 _ 5.e.e.9.7. .0 6 7 7 7 7 w e e e e i i n y y M N ` c P D D ` J D AXVXVXNXNXNXNXNX",
"NXNXNXNXNXNXMXt @ = # * * * > < * # # # $ - A { 5.e.L.L.P.3.d 7 7 6 6 7 7 i e 7 e 7 i a t j ;.H P k D g ) H c D |.ZXNXNXNXNXNXNX",
"NXNXNXNXNXZX* = = = @ @ # # # # $ $ # # $ - A I A T 5.L.U.L. .- 6 6 6 6 0 V i 7 8 6 6 t ) * y c H f g k c D c D ` z ZXNXNXNXNXNX",
"NXNXNXNXZX) a * @ = @ @ # $ * * < y a > @ $ d I I { ,.9.L.L.7.s * % % = - d Q 0 % % & > N < ` ) U f f k D c g c J g ] VXNXNXNXNX",
"NXNXNXNXaX(.] H.& = & # * * * < > 2 u # * v v I I S | ..8.0.e.{ - 0 0 C d Z 6.V o o @ < , k N ` z f 2 N ] g g g c g j VXNXNXNXNX",
"NXNXNXNXP ;.|.VX- s d # $ # # $ < > < * t C _ -.{ T 4.P.)._.).3.q C Z +.T T K.C o o @ y y j x J.g y y ) B H c g g f , 2 NXNXNXNX",
"NXNXZXJ.P G.[.|.dXdX(.* # # # $ $ $ # * t d G.K.4...7.P.L.).U.5.Z  .,.P.>.,.7.C O O & a M ) j y 2 y x ] ;.] y y y k y g fXNXNXNX",
"NXNXNXH C ].dXsXsXsXsX-.1 # @ @ @ # # * 1 ) R.T.4.2.9.e.e.e.0.5.X.,.5.e.L.U.7.s O O * u y y y y y j j ~ ~ ~ y y y y y 2 D NXNXNX",
"NXVX(.N v K.].sXsXsXdX].C = @ @ @ @ # # = 6.T.`.4.5.8.9.5.4.5.5.2.9.9.5.r.9. .= O % 7 y y , y y y y y ` [ p ) j y y y y c ZXNXNX",
"NXZX2 M d  .7.].dXsXdX|.-.* & $ $ $ 1 t s C I ..,.5.5.4.4.2.4.e.e.e.8.,...1. .= O % w y y , , y y a x ] B ) p j y t t s t ] NXNX",
"NXMX1 y x O.3.e.[.].dX].-.j < < > 1 y y u t C 1.e.9.4.4.<.2.5.9.e.e.5.4.4.5. .= O % 1 y 2 2 , > t y g c N j a y > 1 1 1 y N ZXNX",
"NXu * w a } 7.7.q.T.q.1.I H w & # & > y y s C 3.e.9.5.5.<.4.5.8.9.t.t.e.e.5. .= O % y y , > , y y y , j j j H N y y y y g k (.NX",
"NX$ * > y C 3.K.K.7.3. .H ~ l ] * # * > t t d -.{ T ,.4.<.2.4.5.5.8.t.r.U.e.+.d @ & > , > < , y y > n j H =.;.M N k y 2 D L k VX",
"ZX$ # < 1 v 1.G.K.q.3.' =.` ] J.B w > * t t s  .| | ..,.,.,.2.4.2.2.t.U.).L.7.C @ & > < < $ y y , 2 ) N m j ) c g g g f K J D VX",
"pX$ > > y v 3.q.q.7.6.H ~ H ~ n j a > * > y * - I | ,.,.,.,.,.,...,.U.).`.U.e._ # * * , , 1 c x g u N c k k k h h h h 4 h D D VX",
"M 1 y a u v 3.6.3.3.-.N B H H j y j y w t * @ @ I ,.,.,.,.....| | 4.U.).'.'.`.6.a > > g j g h g c P f h k k k h h h h h 4 4 h (.",
"* > y j y v q.w.-.-._ a M H H N a a j y t & & # -  .......| X.X.>.t.U._.'.[.[.R.v g f 2 j j c c x c f f g k c h f h g f , 2 g H ",
"2 1 1 y 1 P G.6.1.-.u x j j n p y H N y * * & # @ 5 C _ C A X.,.9.r.U.`.'.{. X].' g g : y y 2 1 1 2 2 4 f f h g f f y 2 J g y 2 ",
"] y 2 y u ' q.I.I.w.s x N N a p p j a > * # # = @ # $ = -  .1.5.r.U.).`.'. X X[.) E B p < f y g g g 2 2 4 f g g f f [ ` o.N 2 $ ",
"N k 2 y y x w.I.I.G.d j P j a M j w * > u # # = @ # @ @ = Q 3.7.r.U.`.`.[. XI.B E f.:Xb f f y f f 4 2 2 g h H 2 o.y ) J.] ) d $ ",
". ; < u u 3 w.U.Y.I.d a ) p t w t ~ n p a a [ x * & % 6 6 V 3.7.r.U._.[.[. .Q &.qXf.0XgXi y y f f 2 y , c ;.y u g , > w > pXw.> ",
"B 1 : u 1 1 6.U.T.I._ y r w w > w * > t p p p s i b !.&X;XM.-.4.e.L.~.H.Q ! <XcX^.nXvX:XqX*.r 2 y , , y y r y N 1 1 > > > > > < ",
", 2 , y * 3 q.I.T.Y.O.f k m j j M * $ & & & 6 t b E.b.A.;Xf.-.3.e.K.;.&.f.cXgX/.gXbXzX:XiXcXnXp , < ; ; < $ < 2 > , , < < < $ # ",
"> > y y > 3 q.I.U.I.I.P H j y N H , > * * & 8 M.!.oXm.x.f.E ;.7.G.Q E ^.cXnXE.vXvXqX^.bX^.xXgXvXb < # w < ; < > > > , < ; : $ # ",
"x j c c N v 3.I.I.I.I.P P G c 2 D g u y t 9 B.^.&XXXy.#X%.&.H.:.V R ,XxXQ./.mXvX:X^.vXN.mXE.xXcXqXr < n , , , > < > < < < $ $ $ ",
"u j x g G G 6.I.I.Y.I.P g g H c g g k N E j.4X>X#Xp.>X@X&.E b b E j.B.d.gXbX:XE.gXbXE.bX;XbXiXvX0XE.w , y y , > < > < * $ # # @ ",
"j c g z z P 3.K.I.Y.I.3.3 1 g D c c c M %.6XrXrXV.W.tXp./ R R E h.B.,XzXcXB.;XzXqX&XzXqX0XmXQ.qXkX<Xp y y y , > < ; $ $ # # # ) ",
"] g g P P Y -.q.K.Y.T.I.5 1 2 c c c N [ Q.-X6X5Xs.>Xv.6Xu.#.b.&X8XjXjX;XN.kXxXj.Q.8X,XoXmXQ.gXhXkXgX*.r r r > > & & # # @ . . aX",
"AXz z 4 g g +.q.K.Y.T.I.' x g j n ~ E.eXkXyXZ.V.-Xi.&X,X-X8X,XtXkX>Xu.0XzXzXj.>XiX*XXXyXQ.8X-XxX:X^.<X, , , < > ; $ # # + + + VX",
"VXD K L f 2 3.q.K.Y.T.T.H.M m E E.eXxXS.a.+X@Xc.XXx.5Xg.eX@XB.j.s.&XkXcXM.Q.jX>XV.A.7Xg.;XrX6XB.;XxX;Xn , , < < ; # # ; # < * VX",
"NXz F K D 2 } 7.K.T.T.T.~.(.1XkXtXQ.j.,XuX-X2XXXa.4Xx.7XXXx.-XrXjXxX:XN.gXxX&Xs.-X@Xp.=X7Xb.rXjXlXgX&XM., : : < $ # # < < r a NX",
"NX;.U U ` D v 7.K.Y.I.Y.Y.<Xj.+XrX5XjX-Xx.S.%X*X-X2X4X*Xx.uXjXkXeXj.&XxXcXN.&X,X=XoX>Xv.rXrXC.kX^.k.,X^.> X X # # # # < > > ZXNX",
"NXMX@.U o.) u 3.q.K.I.I.I.~.#X6Xa.l.W.S.rX4XV.$X9XV.9XV.5X6XoXj.j.hXzX&Xj.kXyXS.oXc.c.=XOX6XrXj.:XlXcXwXr @ . @ # . . . @ @ VXNX",
"NXVX` U F c 3 1.7.e.e.e.K.H.<XA.*X=XZ.z.s.x.V.-XF.x.c.*X4Xa.oXrXjXtXh.;XxXjXu.x.oXa.3XV.5Xv.oXxXvX:XB.wXp X X @ . . . . . @ NXNX",
"NXVXAX4 z F z } 3.7.q.q.q.q.H.#X$X.Xi.=XV.a.s.Z.x.5X.XrXl.uXhXjXD.b.kXjX&Xj.5X=X*X-Xv.2X3X7X+X;XxXk.:XgX~ . X @ . . . . @ NXNXNX",
"NXNXVXF z Y F } +.3.5.7.7.5.G./.j.V.OXb.z.Z.V.l.2X$XrXn.9X9X+Xs.>XuXyXh.Q.hX4Xx..Xi.F.v.XX$XuXQ.j.bXcX,X;.& . . . . . + # NXNXNX",
"NXNXZXaX4 F U ' +.,.1.5.7.5.K.H.E.u.b.i.OXa.=X-X6XZ.-Xg.5Xa.OXhXkXC.j.eXjXj.s.A.*Xs.A.OX5XW.V.yXxXkXS.s.1X& . .     @ > ZXNXNXNX",
"NXNXVXNXJ F Y ` +.,.1.5.7.7.q.6.=.%.k.$.W x.=X=XV.+Xz.9Xn.uXuXkXa.W.tXyXp.8XrX4XOXZ.#.OX.XrX=X&XjXeX,XyX<Xw # .     . * NXNXNXNX",
"NXNXNXNXZXD D P O.+.+.1.3.3.-._ u w m f./ / b.V.v.3XOX+X*X-Xz.s.tXjX8XW yXhXXXu.$XZ.a.x.n.V.tX-Xp.D.xXiXE.w < $ o     ZXNXNXNXNX",
"NXNXNXNXNXO.h P U ' } ' ' I v v x g n *.&./ g.z.5X*X4XZ.5Xa.$XuXkXV.i.7X8X$.n.@Xz.XXu.*XrX.Xs.7XjXxX&XB.D.b < : # . pXNXNXNXNXNX",
"NXNXNXNXNXVXg J K K Y Y Y Y P F D k g e k.W XX*X9XZ.A.=Xc.V.9X>Xs.C.hXkXg.eX7X-X.Xn.s.s.V.9X4XS.kXcXQ.0XcX/.; : # @ NXNXNXNXNXNX",
"NXNXNXNXNXNXVXJ F F D J D F D F g 2 2 y m ^ $X4X.XZ.x.4Xc.R .X$X7XkXrXz.tX6XV.s.+XZ.a.z.c.v.=X4XB.D.gXbXgX/.$ ; < ZXNXNXNXNXNXNX",
"NXNXNXNXNXNXNXVXk g 2 2 2 2 g h g f g g 2 [ &X$Xa.5X.Xa.4XZ.3X9X*XZ.W.i.a.s.Z..XA.+Xz.u.5XXXi.-XkXgXxXQ.f.M.p > ZXMXNXNXNXNXNXNX",
"NXNXNXNXNXNXNXNXAX2 2 2 1 # j c h h x x y ^ B.x.6X*X5Xa.=XuXa.s.%Xn.i.x.OX-X*XuXs.x.V.u.=X5X4Xx.rXcXqXN.0XbXn ZXNXNXNXNXNXNXNXNX",
"NXNXNXNXNXNXNXNXZXfXg y u 2 2 2 2 4 2 y y E p.&X6Xc.n.=Xc.XX5Xc.c.s.V.rX=X4XA.a.A.$XZ.a.a.n.-X4XD.^.D.iXbXcXVXVXNXNXNXNXNXNXNXNX",
"NXNXNXNXNXNXNXNXNXZXMX2 y 2 < k 2 2 c # < ^ h.6X.Xc.n.$XZ.n.uXv.a..X=XA.c.XXs.c.5X.Xs.n.4XV.x.-XyXiXzXzXgXMXNXNXNXNXNXNXNXNXNXNX",
"NXNXNXNXNXNXNXNXNXNXNXMX2 , , , : < , # w %.Q.oXv.5XXXc.*XhXb.Z.rXhXkX7X.Xs.g.#.s.$.A.( =X7X+Xs.-XxXbXgXVXNXNXNXNXNXNXNXNXNXNXNX",
"NXNXNXNXNXNXNXNXNXNXNXNXNXN y , , y y y y f.oXs.4XrX.XZ.Z.kXp.tXjX4Xc.a.u.@XoXv.#.$.u.#.g.@X5X=XXX^.:XNXNXNXNXNXNXNXNXNXNXNXNXNX",
"NXNXNXNXNXNXNXNXNXNXNXNXNXNXAXg f c N N j E.W.n.6XV.Z.$Xx.p.C.A.n.g.v.A.c.+X*X$Xv.$.$.( W.s.x.=X&XNXVXNXNXNXNXNXNXNXNXNXNXNXNXNX",
"NXNXNXNXNXNXNXNXNXNXNXNXNXNXZXVX=.g h j n !.x.&X$Xa.Z.@XoXW.tXuXZ.c.=XjXhX=XA.%X-XB./ E eX>X$.wXZXVXNXNXNXNXNXNXNXNXNXNXNXNXNXNX",
"NXNXNXNXNXNXNXNXNXNXNXNXNXNXNXNXNXZX] 2 b M.#.*Xc.=XA.s.XXuXhX@Xz.=X5X6X3XOXi.s.C.Q.u.( ,XnXNXVXVXNXNXNXNXNXNXNXNXNXNXNXNXNXNXNX",
"NXNXNXNXNXNXNXNXNXNXNXNXNXNXNXNXNXNXNXNXnX*./ j.OXtXc.g..X2X.Xv.uX2X$X+XZ.b.#.$.p.p.*.ZXNXNXNXNXNXNXNXNXNXNXNXNXNXNXNXNXNXNXNXNX",
"NXNXNXNXNXNXNXNXNXNXNXNXNXNXNXNXNXNXNXNXNXNXVXZX,XF.Z.A.a.z.g.n.4X=Xc.XXv.i.u.B.ZXVXNXNXNXNXNXNXNXNXNXNXNXNXNXNXNXNXNXNXNXNXNXNX",
"t t t t t t t t t t t t t t t t t t t t t t t t t t t t t t t t t t t t t t t t t w w w t t t t t t t t t t t t t t t t t t t t "
};
