/* XPM */
static char *_bb415ead1c14807e6782183809d8d5709W8gdSPcjJcTdlY[] = {
/* columns rows colors chars-per-pixel */
"64 64 115 2 ",
"   c black",
".  c #010101",
"X  c #020202",
"o  c #060606",
"O  c #2F2F2F",
"+  c gray20",
"@  c gray29",
"#  c #626262",
"$  c #D85946",
"%  c #D45C4D",
"&  c #F0CF60",
"*  c #F1D267",
"=  c #F2D574",
"-  c #7BBDE9",
";  c #76C2F1",
":  c #77C2F1",
">  c #78C3F1",
",  c #79C3F1",
"<  c #7AC4F1",
"1  c #7BC4F1",
"2  c #7CC5F1",
"3  c #7CC4F2",
"4  c #7DC5F2",
"5  c #7EC5F2",
"6  c gray62",
"7  c #A293A4",
"8  c #93A2BE",
"9  c gray69",
"0  c gray75",
"q  c #F6E4A4",
"w  c #F7E6AB",
"e  c #F7E7AE",
"r  c #8DA9C9",
"t  c #84C8F2",
"y  c #85C9F2",
"u  c #86C9F3",
"i  c #88CAF3",
"p  c #8ECCF3",
"a  c #91CEF4",
"s  c #97D1F4",
"d  c #9CD2F5",
"f  c #ABD5EF",
"g  c #A2D6F6",
"h  c #A7D8F6",
"j  c #ACDAF7",
"k  c #B0DBF7",
"l  c #B1DCF7",
"z  c #B2DDF7",
"x  c #B4DEF7",
"c  c #B7DFF8",
"v  c #BCE1F8",
"b  c #BEE2F8",
"n  c #C1C1C1",
"m  c gray76",
"M  c #C5C5C5",
"N  c #CACACA",
"B  c gray81",
"V  c #D0D0D0",
"C  c gray82",
"Z  c gray83",
"A  c gray85",
"S  c #DADADA",
"D  c #DFDFDF",
"F  c #FAF0CE",
"G  c #C1E4F9",
"H  c #C7E6F9",
"J  c #CAE7F9",
"K  c #CAE7FA",
"L  c #CBE8F9",
"P  c #CCE8FA",
"I  c #CEE9FA",
"U  c #D4ECFA",
"Y  c #D4ECFB",
"T  c #D6EDFB",
"R  c #D8EEFB",
"E  c #DCEFFB",
"W  c #DDF0FC",
"Q  c #E1E1E1",
"!  c #E2E2E2",
"~  c gray89",
"^  c #E4E4E4",
"/  c #E7E7E7",
"(  c #E9E9E9",
")  c #FCF6E3",
"_  c #FDF9EB",
"`  c #E3F3FC",
"'  c #E5F3FD",
"]  c #E7F4FC",
"[  c #EDF7FD",
"{  c #EFF8FD",
"}  c gray94",
"|  c gray95",
" . c #F3F3F3",
".. c #F4F4F4",
"X. c #F0F8FE",
"o. c #F4FAFE",
"O. c #F6FBFE",
"+. c #F7FBFE",
"@. c gray98",
"#. c #FEFDF8",
"$. c #FEFDF9",
"%. c #FEFDFA",
"&. c #F8FCFE",
"*. c #F9FCFE",
"=. c #F8FCFF",
"-. c #FAFDFE",
";. c #FBFDFE",
":. c #FBFDFF",
">. c #FFFEFD",
",. c #FCFDFF",
"<. c #FCFEFF",
"1. c #FEFEFE",
"2. c #FFFFFE",
"3. c #FEFFFF",
"4. c white",
/* pixels */
"4.4.4.4.4.4.4.4.4.4.4.4.4.4.4.4.4.4.4.4.4.4.4.4.4.4.4.4.4.4.4.4.4.4.4.4.4.4.4.4.4.4.4.4.4.4.4.4.4.4.4.4.4.4.4.4.4.4.4.4.4.4.4.4.",
"4.4.4.4.4.4.4.4.4.4.4.4.4.4.4.4.4.4.4.4.4.4.4.4.4.4.4.4.4.4.4.4.4.4.4.4.4.4.4.4.4.4.4.4.4.4.4.4.4.4.4.4.4.4.4.4.4.4.4.4.4.4.4.4.",
"4.4.4.4.4...4.4.4.4.4.4.4.4.4.4.4.4.4.4.} 4.4.4.4.4.4.4.A 4.4.4.4.4.4.4.@.4.4.4.4.4.4.4.4.4.4.4.4.4.4.Q 4.4.4.4.4.4.4.Q 4.4.4.4.",
"4.4.4.4.4.4.4.4.4.4.4.4.4.4.4.4.4.4.4.4.4.4.4.4.4.4.4.4.4.4.4.4.4.4.4.4.4.4.4.4.4.4.4.4.4.4.4.4.4.4.4.4.4.4.4.4.4.4.4.4.4.4.4.4.",
"4.4.4.4.4.4.4.4.4.4.4.4.4.4.4.4.4.4.4.4.4.4.4.4.4.4.4.4.4.4.4.4.4.4.4.4.4.4.4.4.4.4.4.4.4.4.4.4.4.4.4.4.4.4.4.4.4.4.4.4.4.4.4.4.",
"4.4.4.4.4.4.4.4.4.4.4.4.4.4.4.4.4.4.4.4.4.4.4.4.4.4.4.4.4.4.4.4.4.4.4.4.4.4.4.4.4.4.4.4.4.4.4.4.4.4.4.4.4.4.4.4.4.4.4.4.4.4.4.4.",
"4.4.4.4.4.4.4.4.4.4.4.4.4.4.4.4.4.4.4.4.4.4.4.4.4.4.4.* _ 4.4.%.& 4.4.4.& 4.4.4.4.4.4.4.4.4.4.4.4.4.4.4.4.4.4.4.4.4.4.4.4.4.4.4.",
"4.4.4.4.4.4.4.4.4.4.4.4.4.4.4.4.4.4.4.4.4.4.4.4.4.4.%.& & 4.4.& & e 4.q & & 4.4.4.4.4.4.4.4.4.4.4.4.4.4.4.4.4.4.4.4.4.4.4.4.4.4.",
"4.4.4.4.4.4.4.4.4.4.4.4.4.4.4.4.4.4.4.4.4.4.4.4.4.4.& & & & & & & & 4.& & & & 4.4.4.4.4.4.4.4.4.4.4.4.4.4.4.4.4.4.4.4.4.4.4.4.4.",
"4.4.4.4.4.4.4.4.4.4.4.4.4.4.4.4.4.4.4.4.4.4.4.4.4.& & & & & & & & & & & & & & F 4.4.4.4.4.4.4.4.4.4.4.4.4.4.4.4.4.4.4.4.4.4.4.4.",
"4.4.4.4.4.4.4.4.4.4.4.4.4.4.4.4.4.4.4.4.4.4.4.4.= & & & & & & & & & & & & & & & 4.4.4.4.4.4.4.4.4.4.4.4.4.4.4.4.4.4.4.4.4.4.4.4.",
"4.4.4.4.4.4.4.4.4.4.4.4.4.4.4.4.4.4.4.4.4.4.4.%.& & & & & & & & & & & & & & & & & 4.4.4.4.4.4.4.4.4.4.4.4.4.4.4.4.4.4.4.4.4.4.4.",
"4.4.4.4.4.4.4.4.4.4.4.4.4.4.4.4.4.4.4.4.4.4.4.& & & & & & & & & & & & & & & & & & & 4.4.4.4.4.4.4.4.4.4.4.4.4.4.4.4.4.4.4.4.4.4.",
"4.4.4.4.4.4.4.4.4.4.4.4.4.4.4.4.4.4.4.4.4.4.& & & & & & & & & & & & & & & & & & & & ) 4.4.4.4.4.4.4.4.4.4.4.4.4.4.4.4.4.4.4.4.4.",
"4.4.4.4.4.4.4.4.4.4.4.4.4.4.4.4.4.4.4.4.4.w & & & & & & & & & & & & & & & & & & & & & 4.4.4.4.4.4.4.4.4.4.4.4.4.4.4.4.4.4.4.4.4.",
"4.4.4.4.4.4.4.4.4.4.4.4.4.4.4.4.4.4.4.4.4.& & & & & & & & & & & & & & & & & & & & & & & 4.4.4.4.4.4.4.4.4.4.4.4.4.4.4.4.4.4.4.4.",
"4.4.4.4.4.4.4.4.4.4.4.4.4.4.4.4.4.4.4.4.; ; ; ; ; ; ; ; ; ; ; ; ; ; ; ; ; ; ; ; ; ; ; ; b 4.4.4.4.4.4.4.4.4.4.4.4.4.4.4.4.4.4.4.",
"4.4.4.4.4.4.4.4.4.4.4.4.4.4.4.4.4.4.c ; ; ; ; ; ; ; ; ; ; ; ; ; ; ; ; ; ; ; ; ; ; ; ; ; ; ; 4.4.4.4.4.4.4.4.4.4.4.4.4.4.4.4.4.4.",
"4.4.4.4.4.4.4.4.4.4.4.4.4.4.4.4.4.; ; ; ; ; ; ; ; ; ; ; ; ; ; ; ; ; ; ; ; ; ; ; ; ; ; ; ; ; ; b 4.4.4.4.4.4.4.4.4.4.4.4.4.4.4.4.",
"4.4.4.4.4.^ 4.4.4.4.4.4.4.4.4.4.; ; ; ; ; ; ; ; ; ; ; ; ; ; ; ; ; ; ; ; ; ; ; ; ; ; ; ; ; ; ; ; y 4.4.B 4.4.4.4.4.4.4.V 4.4.4.4.",
"4.4.4.4.4.4.4.4.4.4.4.4.4.4.4.; ; ; ; ; ; ; ; ; ; ; ; ; ; ; ; ; ; ; ; ; ; ; ; ; ; ; ; ; ; ; ; ; ; 5 4.4.4.4.4.4.4.4.4.4.4.4.4.4.",
"4.4.4.4.4.4.4.4.4.4.4.4.4.4.; ; ; ; ; ; ; ; ; ; ; ; ; ; ; ; ; ; ; ; ; ; ; ; ; ; ; ; ; ; ; ; ; ; ; ; i 4.4.4.4.4.4.4.4.4.4.4.4.4.",
"4.4.4.4.4.4.4.4.4.4.4.4.4.; ; ; ; ; ; ; ; ; ; ; ; ; ; ; ; ; ; ; ; ; ; ; ; ; ; ; ; ; ; ; ; ; ; ; ; ; ; W 4.4.4.4.4.4.4.4.4.4.4.4.",
"4.4.4.4.4.4.4.4.4.4.4.4.x ; ; ; ; ; ; ; ; ; ; ; ; ; ; ; ; ; ; ; ; ; ; ; ; ; ; ; ; ; ; ; ; ; ; ; ; ; ; ; 4.4.4.4.4.4.4.4.4.4.4.4.",
"4.4.4.4.4.4.4.4.4.4.4.4.; ; ; ; ; ; ; ; ; ; ; ; > 4.4.4.G ; ; ; ; ; ; ; 4.4.4.4.; ; ; ; ; ; ; ; ; ; ; ; ; 4.4.4.4.4.4.4.4.4.4.4.",
"4.4.4.4.4.4.4.4.4.4.4.> ; ; ; ; ; ; ; ; ; ; ; +.4.4.4.4.4.4.; ; ; ; d 4.4.4.4.4.4.> ; ; ; ; ; ; ; ; ; ; ; &.4.4.4.4.4.4.4.4.4.4.",
"4.4.4.4.4.4.4.4.4.4.4.; ; ; ; ; ; ; ; ; ; ; g 4.4.4.9 } 4.4.4.; ; ; 4.4.4.Z D 4.4.4.; ; ; ; ; ; ; ; ; ; ; ; 4.4.4.4.4.4.4.4.4.4.",
"4.4.4.4.4.N 4.4.4.4.p ; ; ; ; ; ; ; ; ; ; ; 4.4.4.      O 4.4.; ; 4.4.4.        4.4.T ; ; ; ; ; ; ; ; ; ; ; 4.4.4.4.4.n 4.4.4.4.",
"4.4.4.4.4.4.4.4.4.4.; ; ; ; ; ; ; ; ; ; ; ; 4.4.          4.4.T ; 4.4.Q         4.4.4.; ; ; ; ; ; ; ; ; ; ; y 4.4.4.4.4.4.4.4.4.",
"4.4.4.4.4.4.4.4.4.4.; ; ; ; ; ; ; ; ; ; ; ; 4.4.          4.4.E ; 4.4.A         4.4.4.; ; ; ; ; ; ; ; ; ; ; ; 4.4.4.4.4.4.4.4.4.",
"4.4.4.4.4.4.4.4.4.P ; ; ; ; ; ; ; ; ; ; ; ; 4.4.4.      o 4.4.; ; 4.4.4.        4.4.` ; ; ; ; ; ; ; ; ; ; ; ; 4.4.4.4.4.4.4.4.4.",
"4.4.4.4.4.4.4.4.4.> ; ; ; ; ; ; ; ; ; ; ; ; R 4.4.4.+ 6 4.4.4.; ; < 4.4.4.@ # 4.4.4.; ; ; ; ; ; ; ; ; ; ; ; ; 4.4.4.4.4.4.4.4.4.",
"4.4.4.4.4.4.4.4.4.; ; ; ; ; ; ; ; ; ; ; ; ; ; 4.4.4.4.4.4.4.; ; ; ; T 4.4.4.4.4.4.s ; ; ; ; ; ; ; ; ; ; ; ; ; ] 4.4.4.4.4.4.4.4.",
"4.4.4.4.4.4.4.4.4.; ; ; ; ; ; ; ; ; ; ; ; ; ; ; h 4.4.4.+.; ; ; ; ; ; 5 4.4.4.4.; ; ; ; ; ; ; ; ; ; ; ; ; ; ; H 4.4.4.4.4.4.4.4.",
"4.4.4.4.4.4.4.4.4.; ; ; ; ; ; ; ; ; ; ; ; ; ; ; ; ; ; ; ; ; ; ; ; ; ; ; ; ; ; ; ; ; ; ; ; ; ; ; ; ; ; ; ; ; ; b 4.4.4.4.4.4.4.4.",
"4.4.4.4.4.} 4.4.4.; ; ; ; ; ; ; ; ; ; ; ; ; ; ; ; ; ; ; ; ; ; ; ; ; ; ; ; ; ; ; ; ; ; ; ; ; ; ; ; ; ; ; ; ; ; L 4.4.4.Q 4.4.4.4.",
"4.4.4.4.4.4.4.4.4.; ; ; ; ; ; ; ; ; ; ; ; ; ; ; ; ; ; ; ; ; ; ; ; ; ; ; ; ; ; ; ; ; ; ; ; ; ; ; ; ; ; ; ; ; ; { 4.4.4.4.4.4.4.4.",
"4.4.4.4.4.4.4.4.4.< ; ; ; ; ; ; ; ; ; ; $ $ $ $ $ $ $ $ $ $ $ $ $ $ $ $ $ $ $ $ $ $ $ $ 7 ; ; ; ; ; ; ; ; ; ; 4.4.4.4.4.4.4.4.4.",
"4.4.4.4.4.4.4.4.4.[ ; ; ; ; ; ; ; ; ; $ $ $ $ $ $ $ $ $ $ $ $ $ $ $ $ $ $ $ $ $ $ $ $ $ $ - ; ; ; ; ; ; ; ; ; 4.4.4.4.4.4.4.4.4.",
"4.4.4.4.4.4.4.4.4.4.; ; ; ; ; ; ; ; ; $ $ $ $ $ $ $ $ $ $ $ $ $ $ $ $ $ $ $ $ $ $ $ $ $ $ % ; ; ; ; ; ; ; ; ; 4.4.4.4.4.4.4.4.4.",
"4.4.4.4.4.4.4.4.4.4.; ; ; ; ; ; ; ; ; $ $ $ $ $ $ $ $ $ $ $ $ $ $ $ $ $ $ $ $ $ $ $ $ $ $ 8 ; ; ; ; ; ; ; ; z 4.4.4.4.4.4.4.4.4.",
"4.4.4.4.4.4.4.4.4.4.z ; ; ; ; ; ; ; ; r $ $ $ $ $ $ $ $ $ $ $ $ $ $ $ $ $ $ $ $ $ $ $ $ $ ; ; ; ; ; ; ; ; ; 4.4.4.4.4.4.4.4.4.4.",
"4.4.4.4.4.4.4.4.4.4.4.; ; ; ; ; ; ; ; ; ; ; ; ; ; ; ; ; ; ; ; ; ; ; ; ; ; ; ; ; ; ; ; ; ; ; ; ; ; ; ; ; ; ; 4.4.4.4.4.4.4.4.4.4.",
"4.4.4.4.4.4.4.4.4.4.4.y ; ; ; ; ; ; ; ; ; ; ; ; ; ; ; ; ; ; ; ; ; ; ; ; ; ; ; ; ; ; ; ; ; ; ; ; ; ; ; ; ; 4.4.4.4.4.4.4.4.4.4.4.",
"4.4.4.4.4.4.4.4.4.4.4.4.; ; ; ; ; ; ; ; ; ; ; ; ; ; ; ; ; ; ; ; ; ; ; ; ; ; ; ; ; ; ; ; ; ; ; ; ; ; ; ; 5 4.4.4.4.4.4.4.4.4.4.4.",
"4.4.4.4.4.4.4.4.4.4.4.4.] ; ; ; ; ; ; ; ; ; ; ; ; ; ; ; ; ; ; ; ; ; ; ; ; ; ; ; ; ; ; ; ; ; ; ; ; ; ; ; 4.4.4.4.4.4.4.4.4.4.4.4.",
"4.4.4.4.4.4.4.4.4.4.4.4.4.5 ; ; ; ; ; ; ; ; ; ; ; ; ; ; ; ; ; ; ; ; ; ; ; ; ; ; ; ; ; ; ; ; ; ; ; ; ; &.4.4.4.4.4.4.4.4.4.4.4.4.",
"4.4.4.4.4.4.4.4.4.4.4.4.4.4.; ; ; ; ; ; ; ; ; ; ; ; ; ; ; ; ; ; ; ; ; ; ; ; ; ; ; ; ; ; ; ; ; ; ; ; J 4.4.4.4.4.4.4.4.4.4.4.4.4.",
"4.4.4.4.4.4.4.4.4.4.4.4.4.4.4.; ; ; ; ; ; ; ; ; ; ; ; ; ; ; ; ; ; ; ; ; ; ; ; ; ; ; ; ; ; ; ; ; ; k 4.4.4.4.4.4.4.4.4.4.4.4.4.4.",
"4.4.4.4.4.4.4.4.4.4.4.4.4.4.4.4.; ; ; ; ; ; ; ; ; ; ; ; ; ; ; ; ; ; ; ; ; ; ; ; ; ; ; ; ; ; ; ; J 4.4.4.4.4.4.4.4.4.4.4.4.4.4.4.",
"4.4.4.4.4.4.4.4.4.4.4.4.4.4.4.4.4.a ; ; ; ; ; ; ; ; ; ; ; ; ; ; ; ; ; ; ; ; ; ; ; ; ; ; ; ; ; &.4.4.4.4.4.4.4.4.4.4.4.4.4.4.4.4.",
"4.4.4.4.4.4.4.4.4.4.4.4.4.4.4.4.4.4.&.; ; ; ; ; ; ; ; ; ; ; ; ; ; ; ; ; ; ; ; ; ; ; ; ; ; ; 4.4.4.4.4.4.4.4.4.4.4.4.4.4.4.4.4.4.",
"4.4.4.4.4.^ 4.4.4.4.4.4.4.4.4.4.4.4.4.4.f ; ; ; ; ; ; ; ; ; ; ; ; ; ; ; ; ; ; ; ; ; ; ; &.4.4.4.4.4.4.V 4.4.4.4.4.4.4.V 4.4.4.4.",
"4.4.4.4.4.4.4.4.4.4.4.4.4.4.4.4.4.4.4.4.4.4.P ; ; ; ; ; ; ; ; ; ; ; ; ; ; ; ; ; ; ; &.4.4.4.4.4.4.4.4.4.4.4.4.4.4.4.4.4.4.4.4.4.",
"4.4.4.4.4.4.4.4.4.4.4.4.4.4.4.4.4.4.4.4.4.4.4.4.4.j ; ; ; ; ; ; ; ; ; ; ; ; ; +.4.4.4.4.4.4.4.4.4.4.4.4.4.4.4.4.4.4.4.4.4.4.4.4.",
"4.4.4.4.4.4.4.4.4.4.4.4.4.4.4.4.4.4.4.4.4.4.4.4.4.4.4.4.4.4.4.X.' &.4.4.4.4.4.4.4.4.4.4.4.4.4.4.4.4.4.4.4.4.4.4.4.4.4.4.4.4.4.4.",
"4.4.4.4.4.4.4.4.4.4.4.4.4.4.4.4.4.4.4.4.4.4.4.4.4.4.4.4.4.4.4.4.4.4.4.4.4.4.4.4.4.4.4.4.4.4.4.4.4.4.4.4.4.4.4.4.4.4.4.4.4.4.4.4.",
"4.4.4.4.4.4.4.4.4.4.4.4.4.4.4.4.4.4.4.4.4.4.4.4.4.4.4.4.4.4.4.4.4.4.4.4.4.4.4.4.4.4.4.4.4.4.4.4.4.4.4.4.4.4.4.4.4.4.4.4.4.4.4.4.",
"4.4.4.4.4.4.4.4.4.4.4.4.4.4.4.4.4.4.4.4.4.4.4.4.4.4.4.4.4.4.4.4.4.4.4.4.4.4.4.4.4.4.4.4.4.4.4.4.4.4.4.4.4.4.4.4.4.4.4.4.4.4.4.4.",
"4.4.4.4.4.4.4.4.4.4.4.4.4.4.4.4.4.4.4.4.4.4.4.4.4.4.4.4.4.4.4.4.4.4.4.4.4.4.4.4.4.4.4.4.4.4.4.4.4.4.4.4.4.4.4.4.4.4.4.4.4.4.4.4.",
"4.4.4.4.4.N 4.4.4.4.4.4.4.4.4.4.4.4.4.4.M 4.4.4.4.4.4.4.0 4.4.4.4.4.4.4.( 4.4.4.4.4.4.4.4.4.4.4.4.4.4.n 4.4.4.4.4.4.4.n 4.4.4.4.",
"4.4.4.4.4.4.4.4.4.4.4.4.4.4.4.4.4.4.4.4.4.4.4.4.4.4.4.4.4.4.4.4.4.4.4.4.4.4.4.4.4.4.4.4.4.4.4.4.4.4.4.4.4.4.4.4.4.4.4.4.4.4.4.4.",
"4.4.4.4.4.4.4.4.4.4.4.4.4.4.4.4.4.4.4.4.4.4.4.4.4.4.4.4.4.4.4.4.4.4.4.4.4.4.4.4.4.4.4.4.4.4.4.4.4.4.4.4.4.4.4.4.4.4.4.4.4.4.4.4.",
"4.4.4.4.4.4.4.4.4.4.4.4.4.4.4.4.4.4.4.4.4.4.4.4.4.4.4.4.4.4.4.4.4.4.4.4.4.4.4.4.4.4.4.4.4.4.4.4.4.4.4.4.4.4.4.4.4.4.4.4.4.4.4.4."
};
