/* XPM */
static char *xpm_[] = {
/* columns rows colors chars-per-pixel */
"64 64 178 2 ",
"   c #040302",
".  c #0A0504",
"X  c #050902",
"o  c #0A0A05",
"O  c #070309",
"+  c #0C030B",
"@  c #0D0C09",
"#  c #110502",
"$  c #130B05",
"%  c #12040A",
"&  c #120D0B",
"*  c #1D0E08",
"=  c #041E00",
"-  c #081D04",
";  c #0F100B",
":  c #0E1B0F",
">  c #14110E",
",  c #19120E",
"<  c #0A0218",
"1  c #110111",
"2  c #110C10",
"3  c #161412",
"4  c #1A1513",
"5  c #1D1916",
"6  c #1C1B1A",
"7  c #22150D",
"8  c #2B1B0F",
"9  c #220F19",
"0  c #260D11",
"q  c #251C16",
"w  c #231D1A",
"e  c #2E1B1E",
"r  c #0B2F03",
"t  c #043000",
"y  c #0C390D",
"u  c #113008",
"i  c #1B3009",
"p  c #182113",
"a  c #153411",
"s  c #232410",
"d  c #232E12",
"f  c #25221B",
"g  c #2B221C",
"h  c #26291C",
"j  c #30221B",
"k  c #251B25",
"l  c #301F2B",
"z  c #252323",
"x  c #292423",
"c  c #2E2C2D",
"v  c #2A252A",
"b  c #332421",
"n  c #3A2B20",
"m  c #322D2C",
"M  c #332628",
"N  c #32312F",
"B  c #38332B",
"V  c #333230",
"C  c #3B3433",
"Z  c #3C3B39",
"A  c #0D460A",
"S  c #16580C",
"D  c #0E4F18",
"F  c #1A4812",
"G  c #1C5E12",
"H  c #0B6504",
"J  c #146C09",
"K  c #0F750D",
"L  c #167313",
"P  c #207719",
"I  c #185922",
"U  c #36422F",
"Y  c #2E5225",
"T  c #58473D",
"R  c #4E4C4A",
"E  c #554A41",
"W  c #51504F",
"Q  c #5A5956",
"!  c #614F41",
"~  c #64564A",
"^  c #605651",
"/  c #665C55",
"(  c #6B5B52",
")  c #635E5A",
"_  c #6E624F",
"`  c #6E645E",
"'  c #7A675E",
"]  c #76685E",
"[  c #78655C",
"{  c #6E6460",
"}  c #6A6967",
"|  c #6E6D6B",
" . c #7C6C63",
".. c #7E7B75",
"X. c #8C7C6B",
"o. c #82756C",
"O. c #1F8E0F",
"+. c #1E9418",
"@. c #1D9E19",
"#. c #26851E",
"$. c #289D14",
"%. c #1AAA14",
"&. c #1DBB1C",
"*. c #25B814",
"=. c #33B41E",
"-. c #218A20",
";. c #11A427",
":. c #18AB23",
">. c #2EA82C",
",. c #27BD20",
"<. c #2AB829",
"1. c #31B32E",
"2. c #15C607",
"3. c #1ECE0E",
"4. c #1CCA1F",
"5. c #1DD213",
"6. c #20C21E",
"7. c #0CF705",
"8. c #06FD01",
"9. c #0DFE03",
"0. c #0DFE0B",
"q. c #10FF06",
"w. c #11FF07",
"e. c #12FF06",
"r. c #13FF06",
"t. c #11FF05",
"y. c #14FF05",
"u. c #15FE04",
"i. c #17FD06",
"p. c #14FF05",
"a. c #18FE04",
"s. c #18FF06",
"d. c #19FE02",
"f. c #17F50D",
"g. c #18F708",
"h. c #10FF09",
"j. c #13FE09",
"k. c #16FE09",
"l. c #12FF0C",
"z. c #15FE0D",
"x. c #11FF0B",
"c. c #18FE0E",
"v. c #19FE0B",
"b. c #17F504",
"n. c #18EB14",
"m. c #19EE11",
"M. c #1CEE18",
"N. c #0EFA14",
"B. c #12FC12",
"V. c #1BFD12",
"C. c #1AF41B",
"Z. c #27E81A",
"A. c #21F31C",
"S. c #27F91C",
"D. c #1FCE20",
"F. c #25CE21",
"G. c #32C32F",
"H. c #3FD537",
"J. c #2EED24",
"K. c #2BF624",
"L. c #37F52A",
"P. c #958777",
"I. c #97847B",
"U. c #978A81",
"Y. c #938F8E",
"T. c #958D90",
"R. c #999594",
"E. c #898786",
"W. c #A6978C",
"Q. c #A6988D",
"!. c #AF9E95",
"~. c #B5A597",
"^. c #BBAB9D",
"/. c #B6A59C",
"(. c #A8A7A5",
"). c #B7B1B1",
"_. c #BFB5B3",
"`. c #C0BABA",
/* pixels */
"n.n.n.n.n.n.n.n.n.n.n.n.n.n.n.n.n.n.n.n.n.n.n.n.n.n.n.n.n.n.n.n.n.n.n.n.n.n.n.n.n.n.n.n.n.n.n.n.n.n.n.n.n.n.n.n.n.n.n.n.n.n.n.n.",
"a.a.a.a.a.a.a.a.a.a.a.a.a.a.a.a.a.a.a.a.a.a.a.a.a.a.a.a.a.a.a.a.a.a.a.a.a.a.a.a.d.d.d.d.i.d.a.a.a.a.a.a.a.a.a.a.a.a.a.a.a.a.a.a.",
"h.h.h.h.h.h.h.h.h.h.h.h.h.h.h.h.h.h.h.h.h.h.h.h.h.h.h.h.h.h.h.h.h.h.h.h.h.h.h.h.h.h.h.h.x.h.h.h.h.h.h.h.h.h.h.h.h.h.h.h.h.h.h.h.",
"y.y.y.y.y.y.y.y.y.y.y.y.y.y.y.y.y.y.y.y.y.y.y.y.y.y.y.y.y.y.y.y.y.y.y.y.y.y.y.y.y.y.y.y.y.y.y.y.y.y.y.y.y.y.y.y.y.y.y.y.y.y.y.y.",
"y.y.y.y.y.y.y.y.y.y.y.y.y.y.y.y.y.y.y.y.y.y.y.y.y.y.y.y.y.y.y.y.y.y.y.y.y.y.y.y.y.y.y.y.y.y.y.y.y.y.y.y.y.y.y.y.y.y.y.y.y.y.y.y.",
"y.y.y.y.y.y.y.y.y.y.y.y.y.y.y.y.y.y.y.y.y.y.y.y.y.y.y.y.y.y.y.y.y.y.y.y.y.y.y.y.y.y.y.y.y.y.y.y.y.y.y.y.y.y.y.y.y.y.y.y.y.y.y.y.",
"y.y.y.y.y.y.y.y.y.y.y.y.y.y.y.y.y.y.y.y.y.y.y.y.y.y.y.y.y.y.y.y.y.y.y.y.y.y.y.y.y.y.y.y.y.y.y.y.y.y.y.y.y.y.y.y.y.y.y.y.y.y.y.y.",
"y.y.y.y.y.y.y.y.y.y.y.y.y.y.y.y.y.y.y.y.y.y.y.y.y.y.y.y.y.y.y.y.y.y.y.y.y.y.y.y.y.y.y.y.y.y.y.y.y.y.y.y.y.y.y.y.y.y.y.y.y.y.y.y.",
"y.y.y.y.y.y.y.y.y.y.y.y.y.y.y.y.y.y.y.y.y.y.y.y.y.y.y.y.y.y.y.y.y.y.y.y.y.y.y.y.y.y.y.y.y.y.y.y.y.y.y.y.y.y.y.y.y.y.y.y.y.y.y.y.",
"y.y.y.y.y.y.y.y.y.y.y.y.y.y.y.y.y.y.y.y.y.y.y.y.y.y.y.y.y.y.y.y.y.y.y.y.y.y.y.y.y.y.y.y.y.y.y.y.y.y.y.y.y.y.y.y.y.y.y.y.y.y.y.y.",
"y.y.y.y.y.y.y.y.y.y.y.y.y.y.y.y.y.y.y.y.y.y.y.y.y.y.y.y.y.y.y.y.y.y.y.y.y.y.y.y.y.y.y.y.y.y.y.y.y.y.y.y.y.y.y.y.y.y.y.y.y.y.y.y.",
"y.y.y.y.y.y.y.y.y.y.y.y.y.y.y.y.y.y.y.y.y.y.y.y.y.y.y.y.y.y.y.y.y.y.y.y.y.y.y.y.y.y.y.y.y.y.y.y.y.y.y.y.y.y.y.y.y.y.y.y.y.y.y.y.",
"y.y.y.y.y.y.y.y.y.y.y.y.y.y.y.y.y.y.y.y.y.y.y.y.y.y.y.y.y.y.y.y.y.y.y.y.y.y.y.y.y.y.y.y.y.y.y.y.y.y.y.y.y.y.y.y.y.y.y.y.y.y.y.y.",
"y.y.y.y.y.y.y.y.y.y.y.y.y.y.y.y.y.y.y.y.y.y.y.y.y.y.y.y.y.y.y.y.y.y.y.y.y.y.y.y.y.y.y.y.y.y.y.y.y.y.y.y.y.y.y.y.y.y.y.y.y.y.y.y.",
"y.y.y.y.y.y.y.y.y.y.y.y.y.y.y.y.y.y.y.y.y.y.y.y.y.y.y.y.y.y.y.y.y.y.y.y.y.y.y.y.y.y.y.q.y.y.y.y.y.y.y.y.y.y.y.y.y.y.y.y.y.y.y.y.",
"y.y.y.y.y.y.y.y.y.y.y.y.y.y.y.y.y.y.y.y.y.y.y.y.a.9.0.q.a.q.f.y.y.y.y.y.y.y.y.h.j.j.9.j.q.q.q.q.y.y.y.y.y.y.y.y.y.y.y.y.y.y.y.y.",
"y.y.y.y.y.y.y.y.y.y.y.y.y.y.y.y.y.y.y.y.y.y.y.y.9.V.y.a.9.V.f.y.y.y.y.y.y.y.y.y.t.t.7.S q.q.q.q.y.y.y.y.y.y.y.y.y.y.y.y.y.y.y.y.",
"y.y.y.y.y.y.y.y.y.y.y.y.y.y.y.y.y.y.y.y.y.y.y.y.9.J.3.&.D.f.9.y.y.y.y.k.y.y.y.h.j.j.O.o q.q.y.q.y.y.y.y.y.y.y.y.y.y.y.y.y.y.y.y.",
"y.y.y.y.y.y.y.y.y.y.y.y.y.y.y.y.y.y.y.y.t.q.k.c.>.e x g w 2 Y J.f.y.x.x.8.C.=.I D : . i q.q.y.y.y.y.y.y.y.y.y.y.y.y.y.y.y.y.y.y.",
"y.y.y.y.y.y.y.y.y.y.y.y.y.y.y.y.y.y.y.y.k.v.c.+.l d f 5 4 @ & 5 p @.A.M.L s f 6 2     :.k.q.y.y.y.y.y.y.y.y.y.y.y.y.y.y.y.y.y.y.",
"y.y.y.y.y.y.y.y.y.y.y.y.y.y.y.y.y.y.y.y.q.q.*.k f 6 5 > > @ 2 3 7 3 @   9 6 w 4 #     x.h.y.y.y.y.y.y.y.y.y.y.y.y.y.y.y.y.y.y.y.",
"y.y.y.y.y.y.y.y.y.y.y.y.y.y.y.y.y.y.y.8.k.1.g f f 6 3 > o o ; > & @ @ o 3 4 & @       j.y.y.y.y.y.y.y.y.y.y.y.y.y.y.y.y.y.y.y.y.",
"y.y.y.y.y.y.y.y.y.y.y.y.y.y.y.y.y.y.y.c.A.b g f f 6 > > o o @ 3 > > X @ @ & @ o @ o   7.y.y.y.y.y.y.y.y.y.y.y.y.y.y.y.y.y.y.y.y.",
"y.y.y.y.y.y.y.y.y.y.y.y.y.y.y.y.y.y.q.8.F s f q w 5 > @ o X @ & > @ o o o o o @ 6 o   9.y.y.y.y.y.y.y.y.y.y.y.y.y.y.y.y.y.y.y.y.",
"y.y.y.y.y.y.y.y.y.y.y.y.y.y.y.y.y.q.u.9.j x q w q 5 > @ o X o o X X X o @ o X   O X   l.y.y.y.y.y.y.y.y.y.y.y.y.y.y.y.y.y.y.y.y.",
"y.y.y.y.y.y.y.y.y.y.y.y.y.y.y.y.y.q.t.<.g q e 6 5 5 > @ o X X o X @ @ > ; X .   X @   2.y.y.y.y.y.y.y.y.y.y.y.y.y.y.y.y.y.y.y.y.",
"y.y.y.y.y.y.y.y.y.y.y.y.y.y.y.y.y.q.t.d f s w 4 5 4 > > o o o X @ ; @ o > o X   3 Q   K y.y.y.y.y.y.y.y.y.y.y.y.y.y.y.y.y.y.y.y.",
"y.y.y.y.y.y.y.y.y.y.y.y.y.y.y.y.y.9.u.j g w 5 4 5 4 > @ o o X O @ 5 o 3 m C o   c ... G h.q.y.q.y.h.y.y.y.y.y.y.y.y.y.y.y.y.y.y.",
"y.y.y.y.y.y.y.y.y.y.y.y.y.y.y.y.y.9.Z.l j w 5 , , , > @ o X o o @ 5 3 o B C > o 5     r q.q.h.q.h.q.y.y.y.y.y.y.y.y.y.y.y.y.y.y.",
"y.y.y.y.y.y.y.y.y.y.y.y.y.y.y.y.y.l.#.g g q 5 , > > @ o o o o O @ 3 3 o o 5 4 &         k.h.y.h.q.y.y.y.y.y.y.y.y.y.y.y.y.y.y.y.",
"y.y.y.y.y.y.y.y.y.y.y.y.y.y.y.y.y.j.a h j g 5 > & @ @ o X o o   O 3 3 & @ @ > 5 .   X X k.0.h.h.q.h.y.y.y.y.y.y.y.y.y.y.y.y.y.y.",
"y.y.y.y.y.y.y.y.y.y.y.y.y.y.y.y.y.u.h e g q 4 > @ o @ o X o o   @ 3 V > @ 5 5 4   N (.U A.j.j.h.k.y.y.y.y.y.y.y.y.y.y.y.y.y.y.y.",
"y.y.y.y.y.y.y.y.y.y.y.y.y.y.y.y.y.t.m g e w 4 & o o o o X o X o O | )._.V 3 6 &   R E.) L.K.k.0.q.h.y.y.y.y.y.y.y.y.y.y.y.y.y.y.",
"y.y.y.y.y.y.y.y.y.y.y.y.y.y.y.y.y.u.M g g q , & @ o o o o o o z 6 W T.R.T.w & & & (.m C L.K.c.h.q.y.y.y.y.y.y.y.y.y.y.y.y.y.y.y.",
"y.y.y.y.y.y.y.y.y.y.y.y.y.y.y.y.y.t.v g w 4 2 & o X o o o X @ X Q | W W `.j * [ O N 3 v V.K.c.h.h.y.y.y.y.y.y.y.y.y.y.y.y.y.y.y.",
"y.y.y.y.y.y.y.y.y.y.y.y.y.y.y.y.y.j.g q q 4 & & o X O o o o o 6 z p 3 W ( ~ o.l   6 o   h.V.l.0.q.y.y.y.y.y.y.y.y.y.y.y.y.y.y.y.",
"y.y.y.y.y.y.y.y.y.y.y.y.y.y.y.y.y.f.f q w 7 3 & & o X o o o X 6 R Z N f { # # X         V.9.l.0.q.y.y.y.y.y.y.y.y.y.y.y.y.y.y.y.",
"y.y.y.y.y.y.y.y.y.y.y.y.y.y.y.y.y.y.7 q w 5 4 & & X . X o o X @       O o.8 $           q.h.x.x.q.k.y.y.y.y.y.y.y.y.y.y.y.y.y.y.",
"y.y.y.y.y.y.y.y.y.y.y.y.y.y.y.y.a.8.u q w 7 4 & $ X X . X X   3 z O X   I.X.7 .         k.q.x.x.q.y.y.y.y.y.y.y.y.y.y.y.y.y.y.y.",
"y.y.y.y.y.y.y.y.y.y.y.y.y.y.y.y.y.q.P w w 5 , & @ X . X X X     X o O @ Q.~.[ %       X h.h.x.x.h.q.y.y.y.y.y.y.y.y.y.y.y.y.y.y.",
"y.y.y.y.y.y.y.y.y.y.y.y.y.y.y.y.y.y.F.x q 5 > & o . o   o o O     @   @ b ^.W.~ 7       x.x.x.0.h.y.y.y.y.y.y.y.y.y.y.y.y.y.y.y.",
"y.y.y.y.y.y.y.y.y.y.y.y.y.y.y.y.y.9.B.k 5 > , & $ X     o         o o o , Q.^.X._ e   A x.x.x.x.q.q.y.y.y.y.y.y.y.y.y.y.y.y.y.y.",
"y.y.y.y.y.y.y.y.y.y.y.y.y.y.y.y.y.h.9.6 3 , > & . .               O @ o # 7 ~.X.X./   :.x.x.x.x.q.y.y.y.y.y.y.y.y.y.y.y.y.y.y.y.",
"y.y.y.y.y.y.y.y.y.y.y.y.y.y.y.y.y.q.9.0 , , > & & .   . o       @ 3 o o . # ( X.I.E   M.x.x.x.x.h.y.y.y.y.y.y.y.y.y.y.y.y.y.y.y.",
"y.y.y.y.y.y.y.y.y.y.y.y.y.y.y.y.u.t.u.;., $ > > & .     O       & > o .     . o.[ @   0.0.h.l.x.h.y.y.y.y.y.y.y.y.y.y.y.y.y.y.y.",
"y.y.y.y.y.y.y.y.y.y.y.y.y.y.y.y.y.t.t.a.$ $ & $ # .     X       o o X .       ! (   O v.h.h.h.l.q.y.y.y.y.y.y.y.y.y.y.y.y.y.y.y.",
"y.y.y.y.y.y.y.y.y.y.y.y.y.y.y.y.y.y.y.8.y . $ X . +             X o   . .   , T ^ X = q.x.x.h.q.y.y.y.y.y.y.y.y.y.y.y.y.y.y.y.y.",
"y.y.y.y.y.y.y.y.y.y.y.y.y.y.y.y.y.y.y.V.0.J % # .     X X         X         + !./   6.a.x.x.h.q.y.y.y.y.y.y.y.y.y.y.y.y.y.y.y.y.",
"y.y.y.y.y.y.y.y.y.y.y.y.y.y.y.y.y.y.y.u.q.j.F.+         O           X       @ /.{ O B.c.x.x.q.h.y.y.y.y.y.y.y.y.y.y.y.y.y.y.y.y.",
"y.y.y.y.y.y.y.y.y.y.y.y.y.y.y.y.y.y.y.y.y.q.i.A.%.- + X O       .             m v t 0.q.x.x.k.q.y.y.y.y.y.y.y.y.y.y.y.y.y.y.y.y.",
"y.y.y.y.y.y.y.y.y.y.y.y.y.y.y.y.y.y.y.y.y.y.t.j.9.a.H.o         X   X .         H B.g.q.x.x.h.y.y.y.y.y.y.y.y.y.y.y.y.y.y.y.y.y.",
"y.y.y.y.y.y.y.y.y.y.y.y.y.y.y.y.y.y.y.y.y.y.j.t.t.u.y.V.-.      .   . X       %.0.8.u.0.x.x.h.q.y.y.y.y.y.y.y.y.y.y.y.y.y.y.y.y.",
"y.y.y.y.y.y.y.y.y.y.y.y.y.y.y.y.y.y.y.y.y.y.y.y.y.y.y.u.f.,.  O o 1 % + .   < h.h.q.q.h.x.x.x.q.y.y.y.y.y.y.y.y.y.y.y.y.y.y.y.y.",
"y.y.y.y.y.y.y.y.y.y.y.y.y.y.y.y.y.y.y.y.y.y.y.y.y.y.y.y.k.y.B.G.O % % % O   $.h.h.y.q.y.x.x.h.q.y.y.y.y.y.y.y.y.y.y.y.y.y.y.y.y.",
"y.y.y.y.y.y.y.y.y.y.y.y.y.y.y.y.y.y.y.y.y.y.y.y.y.y.y.y.q.v.t.9.0.m.5.5.5.Z.b.q.q.q.q.q.h.x.h.t.y.y.y.y.y.y.y.y.y.y.y.y.y.y.y.y.",
"y.y.y.y.y.y.y.y.y.y.y.y.y.y.y.y.y.y.y.y.y.y.y.y.y.y.y.y.y.y.u.q.t.y.y.u.q.q.h.x.x.x.x.k.k.h.q.t.y.y.y.y.y.y.y.y.y.y.y.y.y.y.y.y.",
"y.y.y.y.y.y.y.y.y.y.y.y.y.y.y.y.y.y.y.y.y.y.y.y.y.y.y.y.y.y.u.t.u.y.y.y.q.q.q.h.x.x.x.0.x.x.t.t.y.y.y.y.y.y.y.y.y.y.y.y.y.y.y.y.",
"y.y.y.y.y.y.y.y.y.y.y.y.y.y.y.y.y.y.y.y.y.y.y.y.y.y.y.y.y.y.y.q.q.y.y.y.t.t.h.k.x.x.x.x.x.x.t.t.y.y.y.y.y.y.y.y.y.y.y.y.y.y.y.y.",
"y.y.y.y.y.y.y.y.y.y.y.y.y.y.y.y.y.y.y.y.y.y.y.y.y.y.y.y.y.y.y.y.u.y.y.y.y.y.y.h.x.x.x.x.h.h.q.q.y.y.y.y.y.y.y.y.y.y.y.y.y.y.y.y.",
"y.y.y.y.y.y.y.y.y.y.y.y.y.y.y.y.y.y.y.y.y.y.y.y.y.y.y.y.y.y.y.y.y.y.y.y.y.y.y.x.x.x.0.x.h.h.q.y.y.y.y.y.y.y.y.y.y.y.y.y.y.y.y.y.",
"y.y.y.y.y.y.y.y.y.y.y.y.y.y.y.y.y.y.y.y.y.y.y.y.y.y.y.y.y.y.y.u.y.u.y.u.y.y.y.h.x.x.x.x.q.q.q.q.y.y.y.y.y.y.y.y.y.y.y.y.y.y.y.y.",
"y.y.y.y.y.y.y.y.y.y.y.y.y.y.y.y.y.y.y.y.y.y.y.y.y.y.y.y.u.t.q.t.q.t.q.t.q.q.q.l.x.x.x.x.q.q.u.q.y.y.y.y.y.y.y.y.y.y.y.y.y.y.y.y.",
"y.y.y.y.y.y.y.y.y.y.y.y.y.y.y.y.y.y.y.y.y.y.y.y.y.y.y.y.y.q.t.t.t.t.t.t.q.q.q.k.x.x.x.x.k.q.q.y.y.y.y.y.y.y.y.y.y.y.y.y.y.y.y.y.",
"y.y.y.y.y.y.y.y.y.y.y.y.y.y.y.y.y.y.y.y.y.y.y.y.y.y.y.y.u.t.t.t.t.t.q.q.y.q.q.h.x.x.x.h.h.q.q.q.y.y.y.y.y.y.y.y.y.y.y.y.y.y.y.y."
};
