/* XPM */
static char *_329943ed43a481acfd50bcf9a9f2c0b3wwwj0OjJsPdba2F[] = {
/* columns rows colors chars-per-pixel */
"64 64 152 2 ",
"   c #243E9C",
".  c #253F9C",
"X  c #253F9D",
"o  c #263F9C",
"O  c #263F9D",
"+  c #26409D",
"@  c #27409D",
"#  c #27419D",
"$  c #27409E",
"%  c #27419E",
"&  c #28429E",
"*  c #29429E",
"=  c #29439E",
"-  c #2A439F",
";  c #2B449F",
":  c #2C459F",
">  c #2C45A0",
",  c #2E47A1",
"<  c #2F48A1",
"1  c #3149A2",
"2  c #324AA2",
"3  c #334BA3",
"4  c #354DA4",
"5  c #364EA4",
"6  c #3A52A6",
"7  c #3B52A6",
"8  c #3B52A7",
"9  c #3D54A7",
"0  c #3F55A8",
"q  c #3F56A8",
"w  c #4056A9",
"e  c #4057A9",
"r  c #435AAA",
"t  c #495FAD",
"y  c #4B60AE",
"u  c #4D62AE",
"i  c #4F64AF",
"p  c #4F64B0",
"a  c #4F65B0",
"s  c #5166B0",
"d  c #5166B1",
"f  c #5266B1",
"g  c #5569B2",
"h  c #556AB2",
"j  c #5A6EB5",
"k  c #5C6FB5",
"l  c #5F72B6",
"z  c #5F72B7",
"x  c #6779BA",
"c  c #6A7BBC",
"v  c #6F80BE",
"b  c #7384BF",
"n  c #7283C0",
"m  c #7384C0",
"M  c #7585C1",
"N  c #7989C3",
"B  c #7A8BC3",
"V  c #7E8DC5",
"C  c gray75",
"Z  c #808FC5",
"A  c #8795C9",
"S  c #8A98CA",
"D  c #8C9ACB",
"F  c #8D9BCC",
"G  c #919ECE",
"H  c #99A5D1",
"J  c #A3AED5",
"K  c #A4AFD6",
"L  c #A7B1D7",
"P  c #A7B2D8",
"I  c #ABB5D9",
"U  c #ACB5D9",
"Y  c #AEB7DA",
"T  c #AFB8DB",
"R  c #B1BADB",
"E  c #B1BBDC",
"W  c #B3BCDD",
"Q  c #B4BDDD",
"!  c #B5BEDE",
"~  c #B7BFDE",
"^  c #B9C1DF",
"/  c #B9C2E0",
"(  c #BBC3E1",
")  c #BFC7E2",
"_  c #C0C0C0",
"`  c #C1C1C1",
"'  c gray76",
"]  c #C3C3C3",
"[  c gray77",
"{  c #C6C6C6",
"}  c gray78",
"|  c gray79",
" . c gray81",
".. c #D7D7D7",
"X. c #C0C8E3",
"o. c #C1C9E3",
"O. c #C2C9E3",
"+. c #C3CAE4",
"@. c #C3CBE4",
"#. c #C4CBE4",
"$. c #C6CCE5",
"%. c #C6CDE5",
"&. c #C7CEE6",
"*. c #C8CFE6",
"=. c #CDD2E8",
"-. c #CED3E9",
";. c #CFD5E9",
":. c #D1D7EA",
">. c #D2D7EA",
",. c #D3D8EB",
"<. c #D4D9EB",
"1. c #D5DAEC",
"2. c #D6DBEC",
"3. c #D6DBED",
"4. c #D9DDEE",
"5. c #DADEEE",
"6. c #DCE0EF",
"7. c #DDE1F0",
"8. c #E2E2E2",
"9. c #E1E5F2",
"0. c #E2E6F2",
"q. c #E4E7F2",
"w. c #E7EAF4",
"e. c #E8EBF4",
"r. c #E8EBF5",
"t. c #EAECF5",
"y. c #EBEEF6",
"u. c #EEF0F7",
"i. c #EFF1F8",
"p. c gray94",
"a. c #F1F1F1",
"s. c gray95",
"d. c #F4F4F4",
"f. c #F6F6F6",
"g. c #F2F4F9",
"h. c #F4F5FA",
"j. c #F5F7FB",
"k. c #F6F7FB",
"l. c #F7F8FB",
"z. c gray98",
"x. c #F8F9FC",
"c. c #FAFAFC",
"v. c #FAFAFD",
"b. c #FAFBFD",
"n. c #FBFBFD",
"m. c gray99",
"M. c #FDFDFD",
"N. c #FDFDFE",
"B. c #FDFEFE",
"V. c #FEFEFE",
"C. c #FEFEFF",
"Z. c white",
/* pixels */
"Z.Z.Z.Z.Z.Z.Z.Z.Z.Z.Z.Z.Z.Z.Z.Z.Z.Z.Z.Z.Z.Z.Z.Z.Z.Z.Z.Z.Z.Z.Z.Z.Z.Z.Z.Z.Z.Z.Z.Z.Z.Z.Z.Z.Z.Z.Z.Z.Z.Z.Z.Z.Z.Z.Z.Z.Z.Z.Z.Z.Z.Z.Z.Z.",
"Z.Z.Z.Z.Z.Z.Z.Z.Z.Z.Z.Z.Z.Z.Z.Z.Z.Z.Z.Z.Z.Z.Z.Z.Z.Z.Z.Z.Z.Z.Z.Z.Z.Z.Z.Z.Z.Z.Z.Z.Z.Z.Z.Z.Z.Z.Z.Z.Z.Z.Z.Z.Z.Z.Z.Z.Z.Z.Z.Z.Z.Z.Z.Z.",
"Z.Z.Z.Z.Z.Z.Z.Z.Z.Z.Z.Z.Z.Z.Z.Z.Z.Z.Z.Z.Z.Z.Z.Z.Z.Z.Z.Z.Z.Z.Z.Z.Z.Z.Z.Z.Z.Z.Z.Z.Z.Z.Z.Z.Z.Z.Z.Z.Z.Z.Z.Z.Z.Z.Z.Z.Z.Z.Z.Z.Z.Z.Z.Z.",
"Z.Z.Z.Z.Z.Z.Z.Z.Z.Z.Z.Z.Z.Z.Z.Z.Z.Z.Z.Z.Z.Z.Z.Z.Z.Z.Z.Z.Z.Z.Z.Z.Z.Z.Z.Z.Z.Z.Z.Z.Z.Z.Z.Z.Z.Z.Z.Z.Z.Z.Z.Z.Z.Z.Z.Z.Z.Z.Z.Z.Z.Z.Z.Z.",
"Z.Z.Z.Z.Z.Z.Z.Z.Z.Z.Z.Z.Z.Z.Z.Z.Z.Z.Z.Z.Z.Z.Z.Z.Z.Z.Z.Z.Z.Z.Z.Z.Z.Z.Z.Z.Z.Z.Z.Z.Z.Z.Z.Z.Z.Z.Z.Z.Z.Z.Z.Z.Z.Z.Z.Z.Z.Z.Z.Z.Z.Z.Z.Z.",
"Z.Z.z.Z.Z.Z.Z.Z.Z.Z.Z.Z.Z.Z.Z.Z.Z.Z.Z.Z.Z.z.Z.Z.Z.Z.Z.Z.Z.Z.a.Z.Z.Z.Z.Z.Z.Z.Z.8.Z.Z.Z.Z.Z.Z.Z.Z. .Z.Z.Z.Z.Z.Z.Z.Z.} Z.Z.Z.Z.Z.Z.",
"Z.Z.Z.Z.Z.Z.Z.Z.Z.Z.Z.Z.Z.Z.Z.Z.Z.Z.Z.Z.Z.Z.Z.Z.Z.Z.Z.Z.Z.Z.Z.Z.Z.Z.Z.Z.Z.Z.Z.Z.Z.Z.Z.Z.Z.Z.Z.Z.Z.Z.Z.Z.Z.Z.Z.Z.Z.Z.Z.Z.Z.Z.Z.Z.",
"Z.Z.Z.Z.Z.Z.Z.Z.Z.Z.Z.Z.Z.Z.Z.Z.Z.Z.Z.Z.Z.Z.Z.Z.Z.Z.Z.Z.Z.Z.Z.Z.Z.Z.Z.Z.Z.Z.Z.Z.Z.Z.Z.Z.Z.Z.Z.Z.Z.Z.Z.Z.Z.Z.Z.Z.Z.Z.Z.Z.Z.Z.Z.Z.",
"Z.Z.Z.Z.Z.Z.Z.Z.Z.Z.Z.Z.Z.Z.Z.Z.Z.Z.Z.Z.Z.Z.Z.Z.Z.Z.Z.Z.Z.Z.Z.Z.Z.Z.Z.Z.Z.Z.Z.Z.Z.Z.Z.Z.Z.Z.Z.Z.Z.Z.Z.Z.Z.Z.Z.Z.Z.Z.Z.Z.Z.Z.Z.Z.",
"Z.Z.Z.Z.Z.Z.Z.Z.Z.Z.Z.Z.Z.Z.Z.Z.Z.Z.Z.Z.Z.Z.Z.Z.Z.Z.  Z.Z.Z.Z.Z.Z.Z.Z.Z.-.%.Z.Z.Z.Z.Z.Z.Z.Z.Z.Z.Z.Z.Z.Z.Z.Z.Z.Z.Z.Z.Z.Z.Z.Z.Z.Z.",
"Z.Z.Z.Z.Z.Z.Z.Z.Z.Z.Z.Z.Z.Z.Z.Z.Z.Z.Z.Z.Z.Z.Z.Z.Z.Z.x.+ Z.Z.Z.Z.Z.Z.Z.Z.  Z.Z.Z.Z.Z.Z.Z.Z.Z.Z.Z.Z.Z.Z.Z.Z.Z.Z.Z.Z.Z.Z.Z.Z.Z.Z.Z.",
"Z.Z.Z.Z.Z.Z.Z.Z.Z.Z.Z.Z.Z.Z.Z.Z.v Z.Z.Z.Z.Z.Z.Z.Z.Z.Z.;.  Z.+     I 1.  Z.Z.Z.Z.Z.Z.Z.Z.Z.Z.x.e.Z.Z.Z.Z.Z.Z.Z.Z.Z.Z.Z.Z.Z.Z.Z.Z.",
"Z.Z.Z.Z.Z.Z.Z.Z.Z.Z.Z.Z.Z.Z.Z.Z.x.h   D Z.Z.Z.Z.Z.Z.Z.Z.                Z.Z.Z.Z.Z.Z.Z.Z.5   n Z.Z.Z.Z.Z.Z.Z.Z.Z.Z.Z.Z.Z.Z.Z.Z.Z.",
"Z.Z.Z.Z.Z.Z.Z.Z.Z.Z.Z.Z.Z.Z.Z.Z.Z.Z.i     t.Z.Z.Z.Z.Z.Y                 Z.Z.Z.Z.Z.Z.E     G Z.Z.Z.Z.Z.Z.Z.Z.Z.Z.Z.Z.Z.Z.Z.Z.Z.Z.",
"Z.Z.Z.Z.Z.Z.Z.Z.Z.Z.Z.Z.Z.Z.Z.Z.Z.Z.Z.Z.i.  u Z.Z.Z.L 1                 O.) Z.Z.Z.    Z.Z.Z.Z.Z.Z.Z.Z.Z.Z.Z.Z.Z.Z.Z.Z.Z.Z.Z.Z.Z.",
"Z.Z.a.Z.Z.Z.Z.Z.Z.Z.Z.Z.Z.Z.Z.Z.Z.Z.Z.Z.Z.    Z.Z.                            } k.  , Z.Z.Z.Z.Z.' Z.Z.Z.Z.Z.Z.Z.Z.C Z.Z.Z.Z.Z.Z.",
"Z.Z.Z.Z.Z.Z.Z.Z.Z.Z.Z.Z.Z.Z.Z.Z.Z.Z.Z.Z.Z.5   6.                              M &   %.Z.Z.Z.Z.Z.Z.Z.Z.Z.Z.Z.Z.Z.Z.Z.Z.Z.Z.Z.Z.Z.",
"Z.Z.Z.Z.Z.Z.Z.Z.Z.Z.Z.Z.Z.Z.Z.Z.Z.Z.Z.Z.Z.Z.                                        Z.Z.Z.Z.Z.Z.Z.Z.Z.Z.Z.Z.Z.Z.Z.Z.Z.Z.Z.Z.Z.Z.",
"Z.Z.Z.Z.Z.Z.Z.Z.Z.Z.Z.Z.Z.Z.Z.Z.Z.Z.Z.Z.Z.Z.                                      Z Z.Z.Z.Z.Z.Z.Z.Z.Z.Z.Z.Z.Z.Z.Z.Z.Z.Z.Z.Z.Z.Z.",
"Z.Z.Z.Z.Z.Z.Z.Z.Z.Z.Z.Z.Z.Z.Z.Z.Z.Z.Z.Z.Z.Z.Z.                                    Z.Z.Z.Z.Z.Z.Z.Z.Z.Z.Z.Z.Z.Z.Z.Z.Z.Z.Z.Z.Z.Z.Z.",
"Z.Z.Z.Z.Z.Z.Z.Z.Z.Z.Z.x.1.Z.Z.Z.Z.Z.Z.Z.Z.Z.k.                                    Z.Z.Z.Z.Z.Z.Z.Z.Z.Z.y Z.Z.Z.Z.Z.Z.Z.Z.Z.Z.Z.Z.",
"Z.Z.Z.Z.Z.Z.Z.Z.Z.Z.Z.Z.  Z.Z.Z.Z.Z.Z.Z.Z.Z.Z.                                    Z.Z.Z.Z.Z.Z.Z.Z.Z.Z.  Z.Z.Z.Z.Z.Z.Z.Z.Z.Z.Z.Z.",
"Z.Z.Z.Z.Z.Z.Z.Z.Z.Z.Z.Z.  d Z.Z.Z.Z.Z.Z.Z.Z.                                      , Z.Z.Z.Z.Z.Z.Z.Z.  :.Z.Z.Z.Z.Z.Z.Z.Z.Z.Z.Z.Z.",
"Z.Z.Z.Z.Z.Z.Z.Z.Z.Z.Z.Z.*.  Z.Z.Z.Z.Z.Z.Z.                  J Z.Z.B                 k Z.Z.Z.Z.Z.Z.x.  Z.Z.Z.Z.Z.Z.Z.Z.Z.Z.Z.Z.Z.",
"Z.Z.Z.Z.Z.Z.Z.Z.Z.Z.Z.Z.Z.    Z.Z.Z.Z.Z.O.              j Z.Z.Z.Z.Z.Z.                Z.Z.Z.Z.Z.Z.  z Z.Z.Z.Z.Z.Z.Z.Z.Z.Z.Z.Z.Z.",
"Z.Z.Z.Z.Z.Z.Z.Z.Z.Z.Z.Z.Z.t.    Z.Z.Z.Z.                Z.Z.Z.Z.Z.Z.Z.Z.              + Z.Z.Z.Q     Z.Z.Z.Z.Z.Z.Z.a.Z.Z.Z.Z.Z.Z.",
"Z.Z.Z.Z.Z.Z.Z.Z.Z.Z.Z.Z.Z.Z.      8 Z.<.                Z.Z.Z.Z.Z.Z.Z.Z.                Z.Z.+     a Z.Z.Z.Z.Z.Z.Z.Z.Z.Z.Z.Z.Z.Z.",
"Z.Z.Z.Z.Z.Z.Z.Z.Z.Z.Z.Z.Z.Z.:.              Z.Z.<       Z.Z.Z.Z.Z.Z.Z.1.      %.Z.1.              Z.Z.Z.Z.Z.Z.Z.Z.Z.Z.Z.Z.Z.Z.Z.",
"Z.Z.Z.Z.Z.Z.Z.Z.Z.Z.Z.Z.Z.Z.Z.Z.,.w       @.Z.Z.Z.        g.Z.Z.Z.Z./         Z.Z.Z.&       h x.Z.Z.Z.Z.Z.Z.Z.Z.Z.Z.Z.Z.Z.Z.Z.Z.",
"Z.Z.Z.Z.Z.Z.Z.Z.Z.Z.Z.Z.Z.Z.Z.Z.Z.Z.4.    Z.Z.Z.Z.                            Z.Z.Z.g.    Z.Z.Z.Z.Z.Z.Z.Z.Z.Z.Z.Z.Z.Z.Z.Z.Z.Z.Z.",
"Z.Z.Z.Z.Z.Z.Z.Z.Z.Z.Z.Z.Z.Z.Z.Z.Z.Z.;     Z.Z.Z.Z.                            Z.Z.Z.Z.    7.Z.Z.Z.Z.Z.Z.Z.Z.Z.Z.Z.Z.Z.Z.Z.Z.Z.Z.",
"Z.Z.Z.Z.Z.Z.Z.Z.Z.Z.Z.Z.Z.Z.Z.Z.Z.Z.      Z.Z.Z.Z.                            Z.Z.Z.Z.    z Z.Z.Z.Z.Z.Z.Z.Z.Z.Z.Z.Z.Z.Z.Z.Z.Z.Z.",
"Z.Z.Z.Z.Z.Z.Z.Z.Z.Z.Z.Z.Z.Z.Z.Z.Z.Z.      Z.Z.Z.G                             x.Z.Z.Z.      Z.Z.Z.Z.Z.Z.Z.Z.Z.Z.Z.Z.Z.Z.Z.Z.Z.Z.",
"Z.Z.Z.Z.Z.Z.Z.Z.Z.Z.Z.Z.Z.Z.Z.Z.Z.Z.      K Z.Z.                                Z.Z.        Z.Z.Z.Z.Z.Z.Z.Z.Z.Z.Z.Z.Z.Z.Z.Z.Z.Z.",
"Z.Z.f.Z.Z.Z.Z.Z.Z.Z.Z.Z.Z.Z.Z.Z.Z.Z.                                                        Z.Z.| Z.Z.Z.Z.Z.Z.Z.Z.' Z.Z.Z.Z.Z.Z.",
"Z.Z.Z.Z.Z.Z.Z.Z.Z.Z.Z.Z.Z.Z.Z.Z.:.              b Z.Z.B                 O.Z.Z.&               Z.Z.Z.Z.Z.Z.Z.Z.Z.Z.Z.Z.Z.Z.Z.Z.Z.",
"Z.Z.Z.Z.Z.Z.Z.Z.Z.Z.Z.Z.Z.Z.Z.Z.  O.            Z.Z.Z.Z.k.            Z.Z.Z.Z.Z.            1   Z.Z.Z.Z.Z.Z.Z.Z.Z.Z.Z.Z.Z.Z.Z.Z.",
"Z.Z.Z.Z.Z.Z.Z.Z.Z.Z.Z.Z.Z.Z.Z.    Z.            Z.Z.Z.Z.Z.          x Z.Z.Z.Z.Z.          t Z.  8 Z.Z.Z.Z.Z.Z.Z.Z.Z.Z.Z.Z.Z.Z.Z.",
"Z.Z.Z.Z.Z.Z.Z.Z.Z.Z.Z.Z.Z.Z.9.  & Z.            Q Z.Z.Z.Z.          h Z.Z.Z.Z.1           -.Z.    Z.Z.Z.Z.Z.Z.Z.Z.Z.Z.Z.Z.Z.Z.Z.",
"Z.Z.Z.Z.Z.Z.Z.Z.Z.Z.Z.Z.Z.Z.    d Z.Y             & 9.l.q             A Z.%.              Z.Z.    I Z.Z.Z.Z.Z.Z.Z.Z.Z.Z.Z.Z.Z.Z.",
"Z.Z.Z.Z.Z.Z.Z.Z.^   x.Z.Z.Z.    / Z.Z.                                                    Z.Z.:     Z.Z.Z.P   k.Z.Z.Z.Z.Z.Z.Z.Z.",
"Z.Z.Z.Z.Z.Z.Z.Z.Z.F   a Z.Z.    Z.Z.Z.                                                  9 Z.Z.k     Z.Z.+   Z.Z.Z.Z.Z.Z.Z.Z.Z.Z.",
"Z.Z.Z.Z.Z.Z.Z.Z.Z.Z.@.    Z.    Z.Z.Z.c       Z.Z.1                         H Z.x.      Z.Z.Z.x.    Z.    e.Z.Z.Z.Z.Z.Z.Z.Z.Z.Z.",
"Z.Z.Z.Z.Z.Z.Z.Z.Z.Z.Z.m         Z.Z.Z.Z.      Z.Z.Z.;                     W Z.Z.Z.      Z.Z.Z.Z.        4.Z.Z.Z.Z.Z.Z.Z.Z.Z.Z.Z.",
"Z.Z.f.Z.Z.Z.Z.Z.Z.Z.Z.Z.Z.Z.  Q Z.Z.Z.Z.d     Z.Z.Z.Z.                    Z.Z. .u.    t.Z.Z.Z.Z.    Z.Z.Z.Z.Z.Z.Z.' Z.Z.Z.Z.Z.Z.",
"Z.Z.Z.Z.Z.Z.Z.Z.Z.Z.Z.Z.Z.Z.Z.Z.Z.Z.Z.Z.Z.    5 Z.Z.Z.                  8 Z.Z.Z.    & Z.Z.Z.Z.Z.Z.Z.Z.Z.Z.Z.Z.Z.Z.Z.Z.Z.Z.Z.Z.Z.",
"Z.Z.Z.Z.Z.Z.Z.Z.Z.Z.Z.Z.Z.Z.Z.Z.Z.Z.Z.Z.Z.w.    w Z.Z.                    Z.Z.      Z.Z.Z.Z.Z.Z.Z.Z.Z.Z.Z.Z.Z.Z.Z.Z.Z.Z.Z.Z.Z.Z.",
"Z.Z.Z.Z.Z.Z.Z.Z.Z.Z.Z.Z.Z.Z.Z.Z.Z.Z.Z.Z.Z.Z.r                                     q.Z.Z.Z.Z.Z.Z.Z.Z.Z.Z.Z.Z.Z.Z.Z.Z.Z.Z.Z.Z.Z.Z.",
"Z.Z.Z.Z.Z.Z.Z.Z.Z.Z.Z.Z.Z.Z.Z.Z.Z.Z.Z.Z.Z.Z.Z.+                                 V Z.Z.Z.Z.Z.Z.Z.Z.Z.Z.Z.Z.Z.Z.Z.Z.Z.Z.Z.Z.Z.Z.Z.",
"Z.Z.Z.Z.Z.Z.Z.Z.Z.Z.Z.Z.Z.Z.Z.Z.Z.Z.Z.Z.Z.Z.Z.Z.+                             n Z.Z.Z.Z.Z.Z.Z.Z.Z.Z.Z.Z.Z.Z.Z.Z.Z.Z.Z.Z.Z.Z.Z.Z.",
"Z.Z.Z.Z.Z.Z.Z.Z.Z.Z.Z.Z.Z.Z.Z.Z.Z.Z.Z.Z.Z.Z.Z.Z.Z.q                         T Z.Z.Z.Z.Z.Z.Z.Z.Z.Z.Z.Z.Z.Z.Z.Z.Z.Z.Z.Z.Z.Z.Z.Z.Z.",
"Z.Z.Z.Z.Z.Z.Z.Z.Z.Z.Z.Z.Z.Z.Z.Z.Z.Z.Z.Z.Z.Z.Z.Z.Z.Z.#.                    x.Z.Z.Z.Z.Z.Z.Z.Z.Z.Z.Z.Z.Z.Z.Z.Z.Z.Z.Z.Z.Z.Z.Z.Z.Z.Z.",
"Z.Z.Z.Z.Z.Z.Z.Z.Z.Z.Z.Z.Z.Z.Z.Z.Z.Z.Z.Z.Z.Z.Z.Z.Z.Z.Z.Z.&             S Z.Z.Z.Z.Z.Z.Z.Z.Z.Z.Z.Z.Z.Z.Z.Z.Z.Z.Z.Z.Z.Z.Z.Z.Z.Z.Z.Z.",
"Z.Z.Z.Z.Z.Z.Z.Z.Z.Z.Z.Z.Z.Z.Z.Z.Z.Z.Z.Z.Z.Z.Z.Z.Z.Z.Z.Z.Z.Z.R Z.Z.*.Z.Z.Z.Z.Z.Z.Z.Z.Z.Z.Z.Z.Z.Z.Z.Z.Z.Z.Z.Z.Z.Z.Z.Z.Z.Z.Z.Z.Z.Z.",
"Z.Z.Z.Z.Z.Z.Z.Z.Z.Z.Z.Z.Z.Z.Z.Z.Z.Z.Z.Z.Z.Z.Z.Z.Z.Z.Z.Z.Z.Z.Z.Z.Z.Z.Z.Z.Z.Z.Z.Z.Z.Z.Z.Z.Z.Z.Z.Z.Z.Z.Z.Z.Z.Z.Z.Z.Z.Z.Z.Z.Z.Z.Z.Z.",
"Z.Z.Z.Z.Z.Z.Z.Z.Z.Z.Z.Z.Z.Z.Z.Z.Z.Z.Z.Z.Z.Z.Z.Z.Z.Z.Z.Z.Z.Z.Z.Z.Z.Z.Z.Z.Z.Z.Z.Z.Z.Z.Z.Z.Z.Z.Z.Z.Z.Z.Z.Z.Z.Z.Z.Z.Z.Z.Z.Z.Z.Z.Z.Z.",
"Z.Z.Z.Z.Z.Z.Z.Z.Z.Z.Z.Z.Z.Z.Z.Z.Z.Z.Z.Z.Z.Z.Z.Z.Z.Z.Z.Z.Z.Z.Z.Z.Z.Z.Z.Z.Z.Z.Z.Z.Z.Z.Z.Z.Z.Z.Z.Z.Z.Z.Z.Z.Z.Z.Z.Z.Z.Z.Z.Z.Z.Z.Z.Z.",
"Z.Z.Z.Z.Z.Z.Z.Z.Z.Z.Z.Z.Z.Z.Z.Z.Z.Z.Z.Z.Z.Z.Z.Z.Z.Z.Z.Z.Z.Z.Z.Z.Z.Z.Z.Z.Z.Z.Z.Z.Z.Z.Z.Z.Z.Z.Z.Z.Z.Z.Z.Z.Z.Z.Z.Z.Z.Z.Z.Z.Z.Z.Z.Z.",
"Z.Z.Z.Z.Z.Z.Z.Z.Z.Z.Z.Z.Z.Z.Z.Z.Z.Z.Z.Z.Z.Z.Z.Z.Z.Z.Z.Z.Z.Z.Z.Z.Z.Z.Z.Z.Z.Z.Z.Z.Z.Z.Z.Z.Z.Z.Z.Z.Z.Z.Z.Z.Z.Z.Z.Z.Z.Z.Z.Z.Z.Z.Z.Z.",
"Z.Z.Z.Z.Z.Z.Z.Z.Z.Z.Z.Z.Z.Z.Z.Z.Z.Z.Z.Z.Z.Z.Z.Z.Z.Z.Z.Z.Z.Z.Z.Z.Z.Z.Z.Z.Z.Z.Z.Z.Z.Z.Z.Z.Z.Z.Z.Z.Z.Z.Z.Z.Z.Z.Z.Z.Z.Z.Z.Z.Z.Z.Z.Z.",
"Z.Z.Z.Z.Z.Z.Z.Z.Z.Z.Z.Z.Z.Z.Z.Z.Z.Z.Z.Z.Z.Z.Z.Z.Z.Z.Z.Z.Z.Z.Z.Z.Z.Z.Z.Z.Z.Z.Z.Z.Z.Z.Z.Z.Z.Z.Z.Z.Z.Z.Z.Z.Z.Z.Z.Z.Z.Z.Z.Z.Z.Z.Z.Z.",
"Z.Z.Z.Z.Z.Z.Z.Z.Z.Z.Z.Z.Z.Z.Z.Z.Z.Z.Z.Z.Z.Z.Z.Z.Z.Z.Z.Z.Z.Z.Z.Z.Z.Z.Z.Z.Z.Z.Z.Z.Z.Z.Z.Z.Z.Z.Z.Z.Z.Z.Z.Z.Z.Z.Z.Z.Z.Z.Z.Z.Z.Z.Z.Z.",
"Z.Z.Z.Z.Z.Z.Z.Z.Z.Z.Z.Z.Z.Z.Z.Z.Z.Z.Z.Z.Z.Z.Z.Z.Z.Z.Z.Z.Z.Z.Z.Z.Z.Z.Z.Z.Z.Z.Z.Z.Z.Z.Z.Z.Z.Z.Z.Z.Z.Z.Z.Z.Z.Z.Z.Z.Z.Z.Z.Z.Z.Z.Z.Z.",
"Z.Z.a.Z.Z.Z.Z.Z.Z.Z.Z.Z.Z.Z.Z.Z.Z.Z.Z.Z.Z.a.Z.Z.Z.Z.Z.Z.Z.Z...Z.Z.Z.Z.Z.Z.Z.Z.} Z.Z.Z.Z.Z.Z.Z.Z.' Z.Z.Z.Z.Z.Z.Z.Z.' Z.Z.Z.Z.Z.Z."
};
