/* XPM */
static char *xpm_[] = {
/* columns rows colors chars-per-pixel */
"64 64 219 2 ",
"   c #0D0506",
".  c #120706",
"X  c #1D0C06",
"o  c #1C0E0B",
"O  c #1C100A",
"+  c #1C1213",
"@  c #240D07",
"#  c #230F09",
"$  c #24120B",
"%  c #2B130C",
"&  c #2E180E",
"*  c #381C0C",
"=  c #2C1611",
"-  c #2D1A14",
";  c #281615",
":  c #321C15",
">  c #3A1D12",
",  c #331E19",
"<  c #381F1A",
"1  c #330E05",
"2  c #1B2B09",
"3  c #2C2118",
"4  c #362116",
"5  c #3C2215",
"6  c #36221B",
"7  c #3A241C",
"8  c #3F291C",
"9  c #27360E",
"0  c #2E2424",
"q  c #3C2621",
"w  c #3C2A23",
"e  c #332629",
"r  c #3A2D2A",
"t  c #342825",
"y  c #3F352E",
"u  c #392F30",
"i  c #3F3530",
"p  c #401F13",
"a  c #422515",
"s  c #41251B",
"d  c #432A1E",
"f  c #4B2C1D",
"g  c #4D2212",
"h  c #522D1F",
"j  c #582B18",
"k  c #432C24",
"l  c #492D21",
"z  c #452E28",
"x  c #453126",
"c  c #4B3225",
"v  c #45322B",
"b  c #4B342C",
"n  c #4D3A2E",
"m  c #543425",
"M  c #5A3423",
"N  c #52342B",
"B  c #533A2D",
"V  c #5C3B2C",
"C  c #5E3B27",
"Z  c #443533",
"A  c #4C3630",
"S  c #4D3B34",
"D  c #433936",
"F  c #533D33",
"G  c #5A3D32",
"H  c #543F38",
"J  c #583F3B",
"K  c #633F2E",
"L  c #623727",
"P  c #713F2F",
"I  c #613F33",
"U  c #35441A",
"Y  c #404C22",
"T  c #4B5722",
"R  c #4D5C2B",
"E  c #4D5729",
"W  c #515C28",
"Q  c #544136",
"!  c #5C4235",
"~  c #55423B",
"^  c #5B453C",
"/  c #5E493E",
"(  c #61402F",
")  c #644333",
"_  c #6A4533",
"`  c #6D4935",
"'  c #62463A",
"]  c #634A3D",
"[  c #6C4B3B",
"{  c #694737",
"}  c #724A31",
"|  c #734D3C",
" . c #7B4D37",
".. c #76503E",
"X. c #7D533C",
"o. c #54612C",
"O. c #5A652B",
"+. c #536027",
"@. c #586636",
"#. c #4D793D",
"$. c #626F3A",
"%. c #4E4341",
"&. c #594742",
"*. c #554843",
"=. c #5D4A43",
"-. c #5B4C4B",
";. c #554649",
":. c #4F504B",
">. c #5C5548",
",. c #5A4E50",
"<. c #634C43",
"1. c #6A4E42",
"2. c #614F49",
"3. c #684F4A",
"4. c #754F47",
"5. c #665044",
"6. c #6B5144",
"7. c #66524A",
"8. c #6B544B",
"9. c #6D594F",
"0. c #6A5944",
"q. c #735343",
"w. c #7A5545",
"e. c #7C5945",
"r. c #72564B",
"t. c #755A4D",
"y. c #7D5B4B",
"u. c #6D5A52",
"i. c #675451",
"p. c #735C53",
"a. c #735F5A",
"s. c #775B53",
"d. c #6D6A4E",
"f. c #657743",
"g. c #746156",
"h. c #7D6253",
"j. c #75635B",
"k. c #7B655C",
"l. c #796B57",
"z. c #7D6761",
"x. c #7D6A62",
"c. c #85533B",
"v. c #855C49",
"b. c #805F50",
"n. c #8A644E",
"m. c #83604D",
"M. c #9B654D",
"N. c #876455",
"B. c #8B6453",
"V. c #8E6957",
"C. c #846659",
"Z. c #836A5E",
"A. c #8D6A5A",
"S. c #936D5C",
"D. c #9F725A",
"F. c #A3755D",
"G. c #836C63",
"H. c #886E66",
"J. c #837067",
"K. c #8A7167",
"L. c #86726B",
"P. c #8C746C",
"I. c #8C786F",
"U. c #847964",
"Y. c #937363",
"T. c #9B7564",
"R. c #92766A",
"E. c #927A6E",
"W. c #9C7B6C",
"Q. c #8C7572",
"!. c #8E7A72",
"~. c #8A7B75",
"^. c #947E72",
"/. c #997D72",
"(. c #947F7A",
"). c #A37B66",
"_. c #31A01C",
"`. c #38B233",
"'. c #01FE03",
"]. c #05FE09",
"[. c #0AFC0C",
"{. c #15FA14",
"}. c #1BF71A",
"|. c #19F81B",
" X c #1EF621",
".X c #2AE325",
"XX c #2BE32A",
"oX c #2AEA20",
"OX c #33E92B",
"+X c #38ED37",
"@X c #2AF327",
"#X c #43CF38",
"$X c #4BD83D",
"%X c #569E52",
"&X c #50924B",
"*X c #70804D",
"=X c #768759",
"-X c #7C925D",
";X c #678556",
":X c #50A741",
">X c #5CB958",
",X c #7E9161",
"<X c #778A67",
"1X c #71A671",
"2X c #53CE4B",
"3X c #7BCF7D",
"4X c #4CE94C",
"5X c #8A8973",
"6X c #9A8276",
"7X c #9B847B",
"8X c #958178",
"9X c #A78679",
"0X c #B18C7B",
"qX c #9B8A81",
"wX c #978486",
"eX c #A58C84",
"rX c #A98E84",
"tX c #A99387",
"yX c #B7988A",
/* pixels */
"'.'.'.'.'.'.'.'.'.'.'.'.'.'.'.'.'.'.'.'.'.'.'.'.'.'.'.'.'.'.'.'.'.'.'.'.'.'.'.'.'.'.'.'.'.'.'.'.'.'.'.'.'.'.'.'.'.'.'.'.'.'.'.'.",
"'.'.'.'.'.'.'.'.'.'.'.'.'.'.'.'.'.'.'.'.'.'.'.'.'.'.'.'.'.'.'.'.'.'.'.'.'.'.'.'.'.'.'.'.'.'.'.'.'.'.'.'.'.'.'.'.'.'.'.'.'.'.'.'.",
"'.'.'.'.'.'.'.'.'.'.'.'.'.'.'.'.'.'.'.'.'.'.'.'.'.'.'.'.'.'.'.'.'.'.'.'.'.'.'.'.'.'.'.'.'.'.'.'.'.'.'.'.'.'.'.'.'.'.'.'.'.'.'.'.",
"'.'.'.'.'.'.'.'.'.'.'.'.'.'.'.'.'.'.'.'.'.'.'.'.'.'.'.'.'.'.'.'.'.'.'.'.'.'.'.'.'.'.'.'.'.'.'.'.'.'.'.'.'.'.'.'.'.'.'.'.'.'.'.'.",
"'.'.'.'.'.'.'.'.'.'.'.'.'.'.'.'.'.'.'.'.'.'.'.'.'.'.'.'.'.'.'.'.'.'.'.'.'.'.'.'.'.'.'.'.'.'.'.'.'.'.'.'.'.'.'.'.'.'.'.'.'.'.'.'.",
"'.'.'.'.'.'.'.'.'.'.'.'.'.'.'.'.'.'.'.'.'.'.'.'.'.'.'.'.'.'.'.'.'.'.'.'.'.'.'.'.'.'.'.'.'.'.'.'.'.'.'.'.'.'.'.'.'.'.'.'.'.'.'.'.",
"'.'.'.'.'.'.'.'.'.'.'.'.'.'.'.'.'.'.'.'.'.'.'.'.'.'.'.'.'.'.'.'.'.'.'.'.'.'.'.'.'.'.'.'.'.'.'.'.'.'.'.'.'.'.'.'.'.'.'.'.'.'.'.'.",
"'.'.'.'.'.'.'.'.'.'.'.'.'.'.'.'.'.'.'.'.'.'.'.'.'.'.'.'.'.'.'.'.'.'.'.'.'.'.'.'.'.'.'.'.'.'.'.'.'.'.'.'.'.'.'.'.'.'.'.'.'.'.'.'.",
"'.'.'.'.'.'.'.'.'.'.'.'.'.'.'.'.'.'.'.'.'.'.'.'.'.'.'.'.'.'.'.%X'.'.'.'.'.'.'.'.'.'.'.'.'.'.'.'.'.'.'.'.'.'.'.'.'.'.'.'.'.'.'.'.",
"'.'.'.'.'.'.'.'.'.'.'.'.'.'.'.'.'.'.'.'.'.'.'.'.'.'.'.'.'.'.'.K.}.'.'.'.'.'.'.'.'.'.'.'.'.'.'.'.'.'.'.'.'.'.'.'.'.'.'.'.'.'.'.'.",
"'.'.'.'.'.'.'.'.'.'.'.'.'.'.'.'.'.'.'.'.'.'.'.'.'.'.'.'.'.'.'.<X;X'.'.'.'.'.'.'.'.'.'.'.'.'.'.'.'.'.'.'.'.'.'.'.'.'.'.'.'.'.'.'.",
"'.'.'.'.'.'.'.'.'.'.'.'.'.'.'.'.'.'.'.'.'.'.'.'.'.'.'.'.'.'.'.2XK.@X'.].'.'.'.'.'.'.'.'.'.'.'.'.'.'.'.'.'.'.'.'.'.'.'.'.'.'.'.'.",
"'.'.'.'.'.'.'.'.'.'.'.'.'.'.'.'.'.'.'.'.'.'.'.'.'.'.'.'.'.'.'.}.P.d.'.'.'.'.'.'.'.'.'.'.'.'.'.'.'.'.'.'.'.'.'.'.'.'.'.'.'.'.'.'.",
"'.'.'.'.'.'.'.'.'.'.'.'.'.'.'.'.'.'.'.'.'.'.'.'.'.'.'.'.'.'.'.].Q.a.#.].'.'.'.'.'.'.'.'.'.'.]._.'.'.'.'.'.'.'.'.'.'.'.'.'.'.'.'.",
"'.'.'.'.'.'.'.'.'.'.'.'.'.'.'.'.'.'.'.'.'.'.'.'.'.'.'.'.'.'.'.'./.K.^ >.#X+X{.].'.'.'.'.'.].:XR '.'.'.'.'.'.'.'.'.'.'.'.'.'.'.'.",
"'.'.'.'.'.'.'.'.'.'.'.'.'.'.'.'.'.'.'.'.'.'.'.'.'.'.'.'.'.'.'.].8XP.H.J i.j.g.&X{.'.'.].'.OXr.f.'.'.'.'.'.'.'.'.'.'.'.'.'.'.'.'.",
"'.'.'.'.'.'.'.'.'.'.'.'.'.'.'.'.'.'.'.'.'.'.'.'.'.'.'.'.'.'.'.].5Xx.7.S i.&.-.-.:.%X&X>X}.0.K.f.'.'.'.'.'.'.'.'.'.'.'.'.'.'.'.'.",
"'.'.'.'.'.'.'.'.'.'.'.'.'.'.'.'.'.'.'.'.'.'.'.'.'.'.'.'.'.'.'.'.5XL.7.D t 8.j.%.-.k.^ 8.W.s.E.,X'.'.'.'.'.'.'.'.'.'.'.'.'.'.'.'.",
"'.'.'.'.'.'.'.'.'.'.'.'.'.'.'.'.'.'.'.'.'.'.'.'.'.'.'.'.'.'.'.].qXu.Q i j.T.t 0 Z 7.d 7X<.Z.9X-X'.'.'.'.'.'.'.'.'.'.'.'.'.'.'.'.",
"'.'.'.'.'.'.'.'.'.'.'.'.'.'.'.'.'.'.'.'.'.'.'.'.'.'.'.'.'.'.'.3Xj.a.~ =.N.V e 0 r p.8Xs.s.R.7X=X'.'.'.'.'.'.'.'.'.'.'.'.'.'.'.'.",
"'.'.'.'.'.'.'.'.'.'.'.'.'.'.'.'.'.'.'.'.'.'.'.'.'.'.'.'.'.'.].wXx.u.a.eXv.3 + u &.k.6.P.t./.G.f.'.'.'.'.'.'.'.'.'.'.'.'.'.'.'.'.",
"'.'.'.'.'.'.'.'.'.'.'.'.'.'.'.'.'.'.'.'.'.'.'.'.'.'.'.'.'.]. XwXx.z.9X0XK D ,.; ;.<.9.6Xk.G.G.<X'.'.'.'.'.'.'.'.'.'.'.'.'.'.'.'.",
"'.'.'.'.'.'.'.'.'.'.'.'.'.'.'.'.'.'.'.'.'.'.'.'.'.'.'.'.'.'.1X~.8XE.6XF.) &.e ;.-.7.k.7XeXz.Q.@.'.'.'.'.'.'.'.'.'.'.'.'.'.'.'.'.",
"'.'.'.'.'.'.'.'.'.'.'.'.'.'.'.'.'.'.'.'.'.'.'.'.'.'.'.'.].[.L.7X9X0Xn.} t.=.;.Z *.2.P.I.eXL.x.=X'.'.'.'.'.'.'.'.'.'.'.'.'.'.'.'.",
"'.'.'.'.'.'.'.'.'.'.'.'.'.'.'.'.'.'.'.'.'.'.'.'.'.'.'.'.'.&XeX8XK.yXD.X.N (.- Z y u.G.Q.qX8Xa.@.'.'.'.'.'.'.'.'.'.'.'.'.'.'.'.'.",
"'.'.'.'.'.'.'.'.'.'.'.'.'.'.'.'.'.'.'.'.'.'.'.'.'.'.'.'.'.U.d.G.6X9X).| i.G.k -.r =.G.J.L.7X&.R '.'.'.'.'.'.'.'.'.'.'.'.'.'.'.'.",
"'.'.'.'.'.'.'.'.'.'.'.'.'.'.'.'.'.'.'.'.'.'.'.'.'.'.'.'.].I.E.D # 6Xn.` <.<.J wXi.u.g.z.J.I.7X@.'.'.'.'.'.'.'.'.'.'.'.'.'.'.'.'.",
"'.'.'.'.'.'.'.'.'.'.'.'.'.'.'.'.'.'.'.'.'.'.'.'.'.'.'.'.].k./.y   tXV.K 6.d k.z.a.u.u.k.J.x.8.9 '.'.'.'.'.'.'.'.'.'.'.'.'.'.'.'.",
"'.'.'.'.'.'.'.'.'.'.'.'.'.'.'.'.'.'.'.'.'.'.'.'.'.'.'.'.'.u.u.r e yXw.c s.q./.p.=.H p.u.g.k.<.2 '.'.'.'.'.'.'.'.'.'.'.'.'.'.'.'.",
"'.'.'.'.'.'.'.'.'.'.'.'.'.'.'.'.'.'.'.'.'.'.'.'.'.'.'.'.[.G.^ Q.6 0XC m E.% ; z.J.g.8.7.8.<.<.U '.'.'.'.'.'.'.'.'.'.'.'.'.'.'.'.",
"'.'.'.'.'.'.'.'.'.'.'.'.'.'.'.'.'.'.'.'.'.'.'.'.'.'.'.'.[.=.<.C.C F.I 1./.X   -.^.^.8.] 5.F v U '.'.'.'.'.'.'.'.'.'.'.'.'.'.'.'.",
"'.'.'.'.'.'.'.'.'.'.'.'.'.'.'.'.'.'.'.'.'.'.'.'.'.'.'.'.{.P.p.{  .D.v.6.! .   o ^ t.V h.B F B U '.'.'.'.'.'.'.'.'.'.'.'.'.'.'.'.",
"'.'.'.'.'.'.'.'.'.'.'.'.'.'.'.'.'.'.'.'.'.'.'.'.'.'.'.'.}.x.G.v.c.v. .K : e r v 8.v.| q.s.) / Y '.'.'.'.'.'.'.'.'.'.'.'.'.'.'.'.",
"'.'.'.'.'.'.'.'.'.'.'.'.'.'.'.'.'.'.'.'.'.'.'.'.'.'.'.'.|.Q.1.S.M.c.j h < 7Xj.L.qXW.W.1.R.T.{ W '.'.'.'.'.'.'.'.'.'.'.'.'.'.'.'.",
"'.'.'.'.'.'.'.'.'.'.'.'.'.'.'.'.'.'.'.'.'.'.'.'.'.'.'.'.|.i.x.V.M.c.g h 7 G.z.i./ h.T.| n.n.{ @.'.'.'.'.'.'.'.'.'.'.'.'.'.'.'.'.",
"'.'.'.'.'.'.'.'.'.'.'.'.'.'.'.'.'.'.'.'.'.'.'.'.'.'.'.].$Xk.9X9Xc.P j w.A p.z.u.~ m y.` } B.e.T '.'.'.'.'.'.'.'.'.'.'.'.'.'.'.'.",
"'.'.'.'.'.'.'.'.'.'.'.'.'.'.'.'.'.'.'.'.'.'.'.'.'.'.'.'.d.!.6X0XL 1 K N.c k.3.a.9.t.m...` c.e.O.'.'.'.'.'.'.'.'.'.'.'.'.'.'.'.'.",
"'.'.'.'.'.'.'.'.'.'.'.'.'.'.'.'.'.'.'.'.'.'.'.'.'.'.'.2Xp.k.9X9X> rXW.A.s.8.8.8.6.h.e.V._ ..[ O.'.'.'.'.'.'.'.'.'.'.'.'.'.'.'.'.",
"'.'.'.'.'.'.'.'.'.'.'.'.'.'.'.'.'.'.'.'.'.'.'.'.'.'.OXg.x.2.g.6XN.rX9XA.I ] G 8.E.A.V.V.e.M L O.'.'.'.'.'.'.'.'.'.'.'.'.'.'.'.'.",
"'.'.'.'.'.'.'.'.'.'.'.'.'.'.'.'.'.'.'.'.'.'.'.'.'.'.l.7.g.! F G.3.H.W.h Y.q.H.y.[ e.` e.V.[ ( +.'.'.'.'.'.'.'.'.'.'.'.'.'.'.'.'.",
"'.'.'.'.'.'.'.'.'.'.'.'.'.'.'.'.'.'.'.'.'.'.'.'.'.#X[ Q 5.S c ^ 8.R.Y.N.4.v._ N.4.| h ` ` ) ) W '.'.'.'.'.'.'.'.'.'.'.'.'.'.'.'.",
"'.'.'.'.'.'.'.'.'.'.'.'.'.'.'.'.'.'.'.'.'.'.'.'.'.l.h./ u.p.^ b G s.C.N.4.S.N.V.| ` ` _ ) M [ W '.'.'.'.'.'.'.'.'.'.'.'.'.'.'.'.",
"'.'.'.'.'.'.'.'.'.'.'.'.'.'.'.'.'.'.'.'.'.'.'.'.oX0.t.~ 7.<.k 8 z k G G [ b.b.b._ ) 1.| y.{ t.T '.'.'.'.'.'.'.'.'.'.'.'.'.'.'.'.",
"'.'.'.'.'.'.'.'.'.'.'.'.'.'.'.'.'.'.'.'.'.'.'.'.oX5.] 9.w x./ n A F G l s N ' K y.V L M ) V ! E '.'.'.'.'.'.'.'.'.'.'.'.'.'.'.'.",
"'.'.'.'.'.'.'.'.'.'.'.'.'.'.'.'.'.'.'.'.'.'.'.'..X8.9.l.8 &.t.8.] ' G G > G > s.r.1.N I B d ] R '.'.'.'.'.'.'.'.'.'.'.'.'.'.'.'.",
"'.'.'.'.'.'.'.'.'.'.'.'.'.'.'.'.'.'.'.'.'.'.'.'..XQ 8.g.~ v F <.] G ) V l > < , : N G l 5 l ] o.'.'.'.'.'.'.'.'.'.'.'.'.'.'.'.'.",
"'.'.'.'.'.'.'.'.'.'.'.'.'.'.'.'.'.'.'.'.'.'.'.'..XQ =.u.x.4 k ' q.) 1.K p f l 7 z = z = d B { o.'.'.'.'.'.'.'.'.'.'.'.'.'.'.'.'.",
"'.'.'.'.'.'.'.'.'.'.'.'.'.'.'.'.'.'.'.'.'.'.'.'..Xn 2.8.g.F b ] [ f ` K V V m < % q z : 8 ! | $.'.'.'.'.'.'.'.'.'.'.'.'.'.'.'.'.",
"'.'.'.'.'.'.'.'.'.'.'.'.'.'.'.'.'.'.'.'.'.'.'.'..Xx v 9.8.9.n d ! M ) _ { M m k z = = F 5 ! ] $.'.'.'.'.'.'.'.'.'.'.'.'.'.'.'.'.",
"'.'.'.'.'.'.'.'.'.'.'.'.'.'.'.'.'.'.'.'.'.'.'.'..Xb S ^ k.<.l.s 5 ) m ) ) a M c k A S c x Q ] $.'.'.'.'.'.'.'.'.'.'.'.'.'.'.'.'.",
"'.'.'.'.'.'.'.'.'.'.'.'.'.'.'.'.'.'.'.'.'.'.'.'.XXw *.=.9.p.5.F d a f ( f [ M m k k v S ^ Q 5.4X'.'.'.'.'.'.'.'.'.'.'.'.'.'.'.'.",
"'.'.'.'.'.'.'.'.'.'.'.'.'.'.'.'.'.'.'.'.'.'.'.'..XQ S =.F 9.^ n <.d * V 5 ( f s A k n c d 8 ] ].'.'.'.'.'.'.'.'.'.'.'.'.'.'.'.'.",
"'.'.'.'.'.'.'.'.'.'.'.'.'.'.'.'.'.'.'.'.'.'.'.'..XF S 4 6 n c Q ^ 5 s > * a a @ = ; - < 8 c 0.'.'.'.'.'.'.'.'.'.'.'.'.'.'.'.'.'.",
"'.'.'.'.'.'.'.'.'.'.'.'.'.'.'.'.'.'.'.'.'.'.'.'..X*.-.x Q n ^ 5.r.l B 5 5 s a : X # @ , d Q l.].'.'.'.'.'.'.'.'.'.'.'.'.'.'.'.'.",
"'.'.'.'.'.'.'.'.'.'.'.'.'.'.'.'.'.'.'.'.'.'.'.'.XXv F =.6 k ^ n 5 c F B B F ) c q - v H Q / ;X'.'.'.'.'.'.'.'.'.'.'.'.'.'.'.'.'.",
"'.'.'.'.'.'.'.'.'.'.'.'.'.'.'.'.'.'.'.'.'.'.'.'.XX- - 7.4 & 7.k n 4 ! ' 1.h.1.1.g.r.2.^ Q t.>X'.'.'.'.'.'.'.'.'.'.'.'.'.'.'.'.'.",
"'.'.'.'.'.'.'.'.'.'.'.'.'.'.'.'.'.'.'.'.'.'.'.'.XX; < ^ 6 8 A A / x d c 5 h ! a [ ' ] Q / 0.+X'.'.'.'.'.'.'.'.'.'.'.'.'.'.'.'.'.",
"'.'.'.'.'.'.'.'.'.'.'.'.'.'.'.'.'.'.'.'.'.'.'.'.XX, - A 7 : = c Q 5 Q 5 d B m ' ] ! x ^ 5.[ |.'.'.'.'.'.'.'.'.'.'.'.'.'.'.'.'.'.",
"'.'.'.'.'.'.'.'.'.'.'.'.'.'.'.'.'.'.'.'.'.'.'.'.XXv - q c 7 = l / F 8 c ] ] b [ F d n S ] ] ].'.'.'.'.'.'.'.'.'.'.'.'.'.'.'.'.'.",
"'.'.'.'.'.'.'.'.'.'.'.'.'.'.'.'.'.'.'.'.'.'.'.'.XXD = k v k = k <.Q @ $ % d % $ 6 / 8 ! Q n ].'.'.'.'.'.'.'.'.'.'.'.'.'.'.'.'.'.",
"'.'.'.'.'.'.'.'.'.'.'.'.'.'.'.'.'.'.'.'.'.'.'.'.XX~ 6 : k z = F ~ ~ X $ 6 x k : 6 , A F n 2 '.'.'.'.'.'.'.'.'.'.'.'.'.'.'.'.'.'.",
"'.'.'.'.'.'.'.'.'.'.'.'.'.'.'.'.'.'.'.'.'.'.'.'.XXZ w 6 , : = H 3.A O ; q k : 6 - 7 w v F `.'.'.'.'.'.'.'.'.'.'.'.'.'.'.'.'.'.'.",
"'.'.'.'.'.'.'.'.'.'.'.'.'.'.'.'.'.'.'.'.'.'.'.'.XXS w 7 $ X 6 &.=.7 w ; , k v k 6 7 w c z [.'.'.'.'.'.'.'.'.'.'.'.'.'.'.'.'.'.'.",
"'.'.'.'.'.'.'.'.'.'.'.'.'.'.'.'.'.'.'.'.'.'.'.'.XXr w S ; X 6 ~ z # ; $ q q 6 k 7 - Q x 3 ].'.'.'.'.'.'.'.'.'.'.'.'.'.'.'.'.'.'."
};
