/* XPM */
static char *xpm_[] = {
/* columns rows colors chars-per-pixel */
"64 64 242 2 ",
"   c #0B0C08",
".  c #1B1B15",
"X  c #191815",
"o  c #140F0C",
"O  c #28170A",
"+  c #231B1A",
"@  c #381B09",
"#  c #24221D",
"$  c #29261B",
"%  c #382613",
"&  c #352B14",
"*  c #221E23",
"=  c #2D2724",
"-  c #372A24",
";  c #3A3428",
":  c #3E3933",
">  c #322C30",
",  c #44211A",
"<  c #4E351D",
"1  c #413628",
"2  c #413A32",
"3  c #653A25",
"4  c #663707",
"5  c #7A4717",
"6  c #524A3D",
"7  c #5A482B",
"8  c #7B5626",
"9  c #664B26",
"0  c #73643F",
"q  c #675946",
"w  c #605C56",
"e  c #776945",
"r  c #716A58",
"t  c #6B6457",
"y  c #985719",
"u  c #8E581A",
"i  c #956119",
"p  c #A5691E",
"a  c #B6771E",
"s  c #8A562B",
"d  c #956837",
"f  c #956A31",
"g  c #A66827",
"h  c #AB7828",
"j  c #B37B2C",
"k  c #B47A27",
"l  c #A46A32",
"z  c #A67936",
"x  c #B57834",
"c  c #C27E29",
"v  c #836C41",
"b  c #847256",
"n  c #8A754A",
"m  c #AB7D42",
"M  c #8E7F62",
"N  c #00FF00",
"B  c #0CFE0B",
"V  c #19FD16",
"C  c #42FB38",
"Z  c #56F54A",
"A  c #4CF542",
"S  c #64EF4A",
"D  c #72F763",
"F  c #BA842E",
"G  c #B7852D",
"H  c #AC8838",
"J  c #B98433",
"K  c #BB8A34",
"L  c #BC8D3A",
"P  c #B58839",
"I  c #BC9134",
"U  c #BD923A",
"Y  c #B7953D",
"T  c #C48C37",
"R  c #C3943D",
"E  c #C8943B",
"W  c #C59A3E",
"Q  c #C59839",
"!  c #C2832C",
"~  c #CBA13E",
"^  c #D2A13C",
"/  c #978555",
"(  c #9A844E",
")  c #AA8444",
"_  c #B48847",
"`  c #BD9643",
"'  c #B9974B",
"]  c #AC9759",
"[  c #B59B53",
"{  c #BB9D55",
"}  c #B59D5B",
"|  c #BA9E5B",
" . c #B49654",
".. c #BA8C5A",
"X. c #BCA156",
"o. c #B6A15C",
"O. c #BDA25C",
"+. c #BBA04B",
"@. c #9E9273",
"#. c #8F8A71",
"$. c #A89768",
"%. c #B49B65",
"&. c #BE9D7B",
"*. c #AD9070",
"=. c #BCA564",
"-. c #BFA96B",
";. c #BAA569",
":. c #BDAB75",
">. c #B8A978",
",. c #B2A778",
"<. c #C29742",
"1. c #C39B44",
"2. c #CB9B44",
"3. c #C39E4B",
"4. c #C79949",
"5. c #C59D52",
"6. c #C48F48",
"7. c #CCA145",
"8. c #C5A14B",
"9. c #CBA24C",
"0. c #C8A448",
"q. c #D2A54B",
"w. c #D7A64A",
"e. c #C4A353",
"r. c #CAA453",
"t. c #CDAA55",
"y. c #C3A45B",
"u. c #CBA55C",
"i. c #C5A95C",
"p. c #CCAA5D",
"a. c #C6A855",
"s. c #D2A955",
"d. c #D2AC5D",
"f. c #D8A858",
"g. c #D4B15B",
"h. c #E1B15F",
"j. c #C2A663",
"k. c #C5AA64",
"l. c #CBAC63",
"z. c #C3AC6B",
"x. c #CBAD6A",
"c. c #C5A768",
"v. c #D0AC62",
"b. c #D4AE68",
"n. c #CEB164",
"m. c #CBB26C",
"M. c #C6B06D",
"N. c #D3B266",
"B. c #D4B36D",
"V. c #DBB468",
"C. c #C3AE73",
"Z. c #CBAE73",
"A. c #C1AE7B",
"S. c #C6B174",
"D. c #CBB374",
"F. c #C5B37B",
"G. c #CAB57C",
"H. c #CDB97D",
"J. c #D2B573",
"K. c #D2B975",
"L. c #DCBA73",
"P. c #D2B67A",
"I. c #D3BA7C",
"U. c #DBBC7B",
"Y. c #DBB674",
"T. c #D3AE75",
"R. c #E3BE7B",
"E. c #E1B976",
"W. c #8AF372",
"Q. c #DCC37E",
"!. c #E3C47D",
"~. c #A19781",
"^. c #AAA488",
"/. c #BEB18A",
"(. c #B9B6AA",
"). c #C6B482",
"_. c #CAB683",
"`. c #C6B984",
"'. c #CCBA84",
"]. c #C7B98A",
"[. c #CCBC8A",
"{. c #C5B58E",
"}. c #D3BD84",
"|. c #DABD85",
" X c #D2BD8B",
".X c #D7B984",
"XX c #CDBE91",
"oX c #D7BE91",
"OX c #C1AA86",
"+X c #E0BE81",
"@X c #97EB83",
"#X c #AAEC8B",
"$X c #CEC18C",
"%X c #D4C185",
"&X c #DBC284",
"*X c #D3C28D",
"=X c #DBC48C",
"-X c #DAC88E",
";X c #CEC192",
":X c #CCC39B",
">X c #D3C394",
",X c #DAC693",
"<X c #DCCA95",
"1X c #D4C59A",
"2X c #D6C99C",
"3X c #DACA9B",
"4X c #D9C599",
"5X c #D5D29B",
"6X c #E3C385",
"7X c #E2C48A",
"8X c #E7C88A",
"9X c #E4CC9B",
"0X c #E2C896",
"qX c #E3D39D",
"wX c #CCC7A5",
"eX c #D6C7A1",
"rX c #D4CCA5",
"tX c #DBCDA4",
"yX c #D4CDAA",
"uX c #DAC7A4",
"iX c #DED1A3",
"pX c #DCD2AC",
"aX c #DAD7AA",
"sX c #DAD4B6",
"dX c #CFC9B6",
"fX c #E4CCA1",
"gX c #E2D2A3",
"hX c #E3D4AC",
"jX c #E8D8A9",
"kX c #E3D5B3",
"lX c #E4DAB5",
"zX c #E8DAB8",
"xX c #D6E7B8",
"cX c #C9EDAD",
"vX c #E9E2BC",
"bX c #F5E9BF",
"nX c #E5DDC2",
"mX c #F0D7C3",
"MX c #ECE9CE",
"NX c #E9E5C6",
"BX c #F4ECCF",
"VX c #EBEAD1",
/* pixels */
"N N N N N N N N N N N N N N N N N N N N N N N N N N N N N N N N N N N N N N N N N N N N N N N N N N N N N N N N N N N N N N N N ",
"N N N N N N N N N N N N N N N N N N N N N N N N N N N N N N N N N N N N N N N N N N N N N N N N N N N N N N N N N N N N N N N N ",
"N N N N N N N N N N N N N N N N N N N N N N N N N N N N N N N N N N N N N N N N N N N N N N N N N N N N N N N N N N N N N N N N ",
"N N N N N N N N N N N N N N N N N N N N N N N N N N N N N N N N N N N N N N N N N N N N N N N N N N N N N N N N N N N N N N N N ",
"N N N N N N N N N N N N N N N N N N N N N N N D S D N N N N N N N N N N N N N N N N N N N N N N N N N N N N N N N N N N N N N N ",
"N N N N N N N N N N N N N N N N N N N N N N N hX5..XN N N N N N N N N N N N N N N N N N N B N N N N N N N N N N N N N N N N N N ",
"N N N N N N N N N N N N N N N N N N N N N N N  X2.j W.N N N N N N N N N N N N N N N N N uX .m wXN N N N N N N N N N N N N N N N ",
"N N N N N N N N N N N N N N N N N N N N N N N R.7.a 6.B N N N N N N N N N N N N N N N 1X_ H p d B N N N N N N N N N N N N N N N ",
"N N N N N N N N N N N N N N N N N N N N N N N +X5.c c fXN N N N N N N N N N N N N N kX' _ ) u s zXN N N N N N N N N N N N N N N ",
"N N N N N N N N N N N N N N N N N N N N N N N .X4.a x T jXN N N N N N N N N N N N fX..) ) m d y OXN N N N N N N N N N N N N N N ",
"N N N N N N N N N N N N N N N N N N N N N N N V.2.! a ! 6.9XW.N N N N N N N N N ,X_ z H l d s y M B N N N N N N N N N N N N N N ",
"N N N N N N N N N N N N N N N N N N N N N N N u.k w.h.w.w.7.1.u..X0XjXfXfXbXjXT._ y _ l n s s x ..B N N N N N N N N N N N N N N ",
"N N N N N N N N N N N N N N N N N N N N N N kXf.h.N.V.w.w.^ ^ w.w.w.w.^ 2.R J _ l p z 5 3 3 8 l *.N N N N N N N N N N N N N N N ",
"N N N N N N N N N N N N N N N N N N N N S oXY.R.L.Y.n.7.2.E 2.W 4.f.g.f.q.2.p g 5 _ z 8 , < d g *.N N N N N N N N N N N N N N N ",
"N N N N N N N N N N N N N N N N N N N hX'.6XE.6X7X|.v.2.F E W 2.5.r.s.3.2.1.f.u l z z 9 + 7 z 6..XN N N N N N N N N N N N N N N ",
"N N N N N N N N N N N N N N N N N BX0X6XR.E.U.8X9X7Xv.1.J q.3.5.l.y.e.9.9.9.2.f.i z d O , 9 H x mXN N N N N N N N N N N N N N N ",
"N N N N N N N N N N N N N N N N mX9X6X8X!.V.Q.7X<X8Xv.R <.5.j.C.z.z.l.8.9.r.r.r.w.z @ % 7 ) L l C N N N N N N N N N N N N N N N ",
"N N N N N N N N N N N N N N N #X0X!.!.!.Y.+X.X}.=XY.<.K ` i.I. X Xz.{ ' 9.t.a.p.f.2._ s z x 4 _ #XN N N N N N N N N N N N N N N ",
"N N N N N N N N N N N N N N N fX&X7X6XJ.n 1 @._.U.k.<.K 4.H.,XH..XY.3.K Y r.t.a.v.d.w.T G G c x .XN N N N N N N N N N N N N N N ",
"N N N N N N N N N N N N N N N fXgXvXjXOXr > 6 m.l.l.r.r.l..X*X_.Q.n.l.r.<.3.r.d.d.v.V.h.E j l g 5.hXN N N N N N N N N N N N N N ",
"N N N N N N N N N N N N N N cXpXNXBXnX#.2 = @ X.V.L.N.L.b.}.OXOX7 e ;.l.7.8.e.p.b.v.N.V.h.E u y T P.N N N N N N N N N N N N N N ",
"N N N N N N N N N N N N N N xXkXBXNXfX$.< , -.V.Y.L.K.U.e...b 1 (.=   ( 3.e.p.l.N.l.p.p.g.7.x y T x.N N N N N N N N N N N N N N ",
"N N N N N N N N N N N N N N nXMXVXvX|.D.%.|.Q.L.6X6X&XB.P 8 O (.X X + @  .i.l.v.v.v.v.d.t.q.W j T a.N N N N N N N N N N N N N N ",
"N N N N N N N N N N N N N N nXNXMXzXP.6X8XU.!.6X7X&XL.V.3.( % r > . ; &.Y.I.=X}.J.K.K.m.n.s.7.I E t.N N N N N N N N N N N N N N ",
"N N N N N N N N N N N N N N NXNXNXNXgXqX5X$X&X%X=X7XQ.V.8.p.C./ r #.`.'.0X2XpX3X4X*X*X*XQ.k.q.~ 2.5.N N N N N N N N N N N N N N ",
"N N N N N N N N N N N N N A nXNXMXMX^.b M @.,.$X4X,X6XL.N.n.Z.:.x.N.e.Y.,XiXpXpXXX;X1X3X*X'.N.0.2.r.N N N N N N N N N N N N N N ",
"N N N N N N N N N N N N N sXxXNXVX$ # * > ; : ^.yXtX0X|.K.}.oXK.n.x.P.].rXrXpXpX4X2X4X1X,X&XL.n.q.g.@XN N N N N N N N N N N N N ",
"N N N N N N N N N N N N N zX:XzXVX# . X   X . : dXkXgX<XI.%X3XiXiXtX:X2X2XyXpXsXpXpXtXeX>X$XK.g.0.g.J.N N N N N N N N N N N N N ",
"N N N N N N N N N N N N N vXsXNXdXw # X X     w wXdXaX3X%X<XeXyXyXsXyXyXrXrXrXrXtX2X>XXX$XH.n.e.0.t.l.cXN N N N N N N N N N N N ",
"N N N N N N N N N N N N N NXwXsX(.: # X X o : #.(.^./.].G.XX2XwXyXyXpXyXwXpXtX3X>X>XXX'.F.S.i.` 9.s.u. XN N N N N N N N N N N N ",
"N N N N N N N N N N N N N zXpXyX~.q = # # : w #.(.yX2X$XG.>XtXwXwX:XwXyXpXeX2X;X[.'._._.H.x.e.` 4.9.9.T.C N N N N N N N N N N N ",
"N N N N N N N N N N N N N lXsXrX@.q 6 : : ; q ^.,.].:.F.F.'.XX:X>X1X1X>XXXXX].].F.G.'. XI.x.3.` 4.1.3.V.Z N N N N N N N N N N N ",
"N N N N N N N N N N N N N lXzXtX{.q + o $ 2 6 e $.;.%.z.-.%.:.]._._._.).{. X[.'.[.*XXX'.Z.k.3.` 3.` 8.l.kXN N N N N N N N N N N ",
"N N N N N N N N N N N N N zXkXpXhX7 ; # # X . 0 ,.,.).$./ n ;.G.'.).A. XXX[.{.oXeX3X1X4XP.m.3.1.9.U 2.t.oXN N N N N N N N N N N ",
"N N N N N N N N N N N N N VXhXhX2X/.q - - & 7 $ o ; % % q b A.D.G._..XoX].[.>X4X4X>X*X XM.X.` <.Y <.0.r.J.N N N N N N N N N N N ",
"N N N N N N N N N N N N N A kXhXuX2X,.e e b r q 7 d n n ( G.`.G.).). X{.XX X[.'.'.'._.Z.l.8.2.U U I U 2.i.NXN N N N N N N N N N ",
"N N N N N N N N N N N N N N kXjX<X>X[.%./ ( o.=.] ] ] =.S.G.H.S.S.G.H.`.*X;X;X[._..XD.y.3.1.W E T j R 0.e.vXN N N N N N N N N N ",
"N N N N N N N N N N N N N N kXgX9X4X>X$XG.G.G.G.M.S.:.H.S.S.S.G.F.S.A._.[.1X>XXX'.Z.j.r.<.R W J F G L Y 8.aXN N N N N N N N N N ",
"N N N N N N N N N N N N N N zX3X9X,X<X*X%X%XG.-.-.-.M.S.:.-.S.-.A. X$X].[.XX>X*XG.x.i.3.I 1.J h k G L W r.,XN N N N N N N N N N ",
"N N N N N N N N N N N N N N jX,X-X-X-X%X%XG.Q.Q.M.Q.-.:.M.:.M.M.G.>X*X2X;X[._.G.D.m.i.0.R P x j J L ` W 0. XN N N N N N N N N N ",
"N N N N N N N N N N N N N B qX|.Q.%X%X%XQ.H.I.K.-.-.Q.-.n.-.-.K. X,X4X[.;X*XH.G.x.x.u.e.4.L j T T 1.8.r.s.'.N N N N N N N N N N ",
"N N N N N N N N N N N N N A qX=XI.K.H.Q.H.H.I.D.m.-.-.-.M.n.M.i.P._.|.`.F.C.F.I.D.D.l.0.W I L L t.r.v.x.Y.[.N N N N N N N N N N ",
"N N N N N N N N N N N N N MX9X=X=XI.m.Q.K.I.P.m.M.O.n.-.=.n.n.=.m.j.z.z.k.G.`.Z.Z.x.y.9.2.Y ` r.5.z.x.K.m.[.N N N N N N N N N N ",
"N N N N N N N N N N N N N zX9X4X=XQ.Q.D.n.m.K.n.Q.i.i.=.i.i.o.O.{ { =.M.G.G.C.z.D.j.l.i.' y.m.D.I.}.G.}.K.XXN N N N N N N N N N ",
"N N N N N N N N N N N N N kXgX<X-X=X|.I.D.a.+.X.X.{ [ ' [ [ X.X.k.;.C.`.A.I.H.D.D.Z.x.j.Z.P.D.G._.].$X}.K.[.N N N N N N N N N N ",
"N N N N N N N N N N N N N hXhXiX5X=X|.P.D.m.O.' ' ' _ _ [ } ;.z.).$X*X].F.G.G.'.H.G.F.'.,X*X-X$X4X1X>X XB.F.N N N N N N N N N N ",
"N N N N N N N N N N N N N hXzXhXiX3X=X}.D.m.l.i.5.y.y.y.j.k.F.].].*X].:.`.G.H.}. X}.*X}. X4X%X>XXX[.]. XY.F.N N N N N N N N N N ",
"N N N N N N N N N N N N N fXjXkXpX3X>X XI.x.k.i.i.[ { O.=.C.H.`.'.'.%X X].*X$.}.'. X[.3X<XXX>X>X1XgX'.G.l.P.N N N N N N N N N N ",
"N N N N N N N N N N N N xX0XgXhXiXeX>X XD.D.k.k.k.y.k.k.S.F.[.;X*X`.'.].'.].$XF.'.'.1X4X>XXX[.1X1X*XQ.S.n.S.N N N N N N N N N N ",
"N N N N N N N N N N N N N *XqX3X3X<X*X XG.I.D.O.{ O.j.k.} S.`.;X'.). X_.*X>X[.$X>./.[.XXeX2X5X2X1X$X%XC.t.z.N N N N N N N N N N ",
"N N N N N N N N N N N N N 0X9X<X,X%X%X X'.G.c.O.k.-.} } G.H.`.:._.).[.'. X[.2X>X3X1XXX2XtXeX2X2X4X XS.p.~ S.N N N N N N N N N N ",
"N N N N N N N N N N N N xXqXgX<X*X%X|.I.D.Z.z.i.m.x.k.C.G.F.`.G.F.'.`.[.;.:.].;X1X[.:X>XeX2X;X>X'.D.z.r.T H.N N N N N N N N N N ",
"N N N N N N N N N N N N vXjX5X<X-X%XK.D.D.K.m.x.k.j.D.S.S.:.:.[. X_. X_.*X*X;X$X;X1X;X;X1X$X;X%XK.b.p.<.F _.N N N N N N N N N N ",
"N N N N N N N N N N N V jXlXiX<X=XI.J.D.m.J.x.z.x.c.D.S.S.S.H.`.)._.A.A.F./.$X;X;X2X2X1X$X$X'.D.e.0.1.K F oXN N N N N N N N N N ",
"N N N N N N N N N N N Z jXlXpX3X*X}.D.n.k.n.k.k.z.k.S.F.F.`.'.`.[.[.[.`.:.:.:.].>X1X1X>X[.'.B.v.y.2.F J F 5XN N N N N N N N N N ",
"N N N N N N N N N N N vXjXpXiX3X*XI.m.l.i.i.e.y.k.D.D.-.F.F.`.`.[.[.].[.$X$X).F.*X$X$X*X}.I.x.c.l.5.K j G 5XN N N N N N N N N N ",
"N N N N N N N N N N N gXjXhX3X>X}.H.m.n.i.y.e.k.k.j.z.D.S.F.H.].F.[.`.>X].,X*X_.H.F.H.H.S.S.H.C.J.l.L h G 5XN N N N N N N N N N ",
"N N N N N N N N N N lX7X9X2X,X XP.J.m.k.i.e.a.i.e.k.k.z.D.F.F.F.'.).F.:._.G.G.}.C.G.H.G.'.%XG.].G.D.' G G iXN N N N N N N N N N ",
"N N N N N N N N N B *X!.9X<X=X}.D.m.m.x.j.i.X.e. .k.=.j.-.z.S.Z.G.S.G.S.F.-.G.C.G..XP._.`.'.[.3X'.K.e.G h aXN N N N N N N N N N ",
"N N N N N N N N N #XI.B.T.K.P.J.m.M.k.k.j.i.a.X.y.X.i.j.o.=.} =.=.M.-.M.-.c.=.k.z.C.D.'.G.F.[.]._.x.` G p xXN N N N N N N N N N ",
"N N N N N N N N N 9XB.f.u.v.b.x.x.l.k.k.i.O.O.X.y.O.j.o.O.o.z.c.=.-.=.=.=.O.=.-.=.x.S.S.H.`.`.{.[.c.P k h NXN N N N N N N N N N ",
"N N N N N N N N @XJ.f.f.5.4.3.r.e.e.i.O.y.O.| [ O.O.O.o.} O.| -.;.o.=.o.=.M.=.O.=.k.C.C.G.F.H.].'.c.P k f Z N N N N N N N N N N ",
"N N N N N N N N kXT.s.r.u.e.2.P H Y ' { { } O.X.] o.=.=.O.} } -.} =.=.-.=.-.=.[ =.z.;.-.F.F.F.'.G.i.H p ) N N N N N N N N N N N ",
"N N N N N N N N .Xf.s.V.V.f.p.9.` P H H [  .[ [ o.[ [ o.} o.o.=.] o.o.=.;.o.k.} [ =.j.j.C.S.D.).A.e.K p &.N N N N N N N N N N N "
};
